<svg width="48" height="48" viewBox="0 0 48 48" fill="none" xmlns="http://www.w3.org/2000/svg">
<g id="Avatar">
<rect x="0.5" y="0.5" width="47" height="47" rx="23.5" fill="white" fill-opacity="0.5"/>
<rect x="0.5" y="0.5" width="47" height="47" rx="23.5" stroke="#FFF4F4"/>
<g id="Artboard 69">
<path id="Path" d="M40.0207 37.9792C30.5833 45.2458 17.4198 45.1876 8.047 37.838L14.9166 34.6178C15.2438 34.464 15.5578 34.2836 15.8555 34.0785C15.9458 34.0164 16.0362 33.9515 16.1223 33.8837C16.8699 33.3116 17.4854 32.585 17.9265 31.7533C18.2601 31.1143 18.4816 30.4229 18.5816 29.7091C18.6505 29.2459 18.6854 28.7783 18.6861 28.31C18.6861 27.5025 18.6423 26.695 18.6338 25.886C18.6282 25.438 18.6235 24.9905 18.6197 24.5435L18.9021 24.6846L19.6362 25.0644L19.9764 25.1223L23.9124 25.7915L28.3058 26.5397L28.4385 31.0573L28.4823 32.534L28.5035 33.2512V33.2978L30.2117 33.9924L40.0207 37.9792Z" fill="#DE8276"/>
<path id="Path_2" d="M28.4752 33.0169C27.99 33.1003 27.4908 33.023 27.0536 32.7966L18.6296 25.91C18.6197 25.591 18.6112 25.9256 18.607 25.6065C18.6014 25.1585 18.5967 24.711 18.5929 24.2639L18.8752 24.4051L19.6094 24.7849L19.9496 24.8427L23.8856 25.5119L28.279 26.2602L28.4117 30.7778L28.4555 32.2545L28.4767 32.9717V33.0183L28.4752 33.0169Z" fill="#A76962"/>
<path id="Path_3" d="M32.8233 20.7416C32.6038 20.9712 32.3632 21.1796 32.1047 21.3642C30.6365 22.4273 28.677 22.776 27.0026 23.3492C26.2967 23.5906 18.6422 25.7661 18.6422 26.239C18.6422 26.136 17.8925 25.392 16.948 24.4885C13.6905 21.3685 12.6045 16.608 14.1866 12.384C15.7269 8.33645 20.637 5.54681 24.7494 4.90163C26.7076 4.59528 29.0313 4.42445 30.8398 5.36328C31.7645 5.84469 32.5339 6.54634 33.2398 7.32422C33.46 7.56986 33.6737 7.82069 33.8807 8.07669C33.9697 8.18398 34.0572 8.29128 34.1433 8.39998C37.3579 12.4376 36.2186 17.1741 32.8233 20.7416Z" fill="url(#paint0_linear_524_3367)"/>
<path id="Path_4" d="M32.8236 20.7417C32.6041 20.9712 32.3635 21.1797 32.105 21.3642C32.0447 21.2592 31.9905 21.1508 31.9426 21.0395C31.5699 20.1925 31.3779 19.2734 31.2367 18.3572C31.0169 17.0238 30.8666 15.6799 30.7864 14.3308C30.6579 12.1652 29.7332 11.0908 31.5727 9.40236C32.2347 8.79567 33.0231 8.34339 33.881 8.07812C33.9699 8.18542 34.0575 8.29271 34.1436 8.40142C37.3582 12.4377 36.2189 17.1741 32.8236 20.7417Z" fill="url(#paint1_linear_524_3367)"/>
<ellipse id="Oval" cx="17.2303" cy="20.5934" rx="2.4" ry="2.4" fill="#E18477"/>
<ellipse id="Oval_2" cx="17.9928" cy="20.5933" rx="2.1487" ry="2.14871" fill="#A76962"/>
<path id="Path_5" d="M18.1722 18.3177C18.2894 19.8509 18.2852 21.7229 18.3261 22.2707C18.4324 23.6438 18.5379 25.0165 18.6423 26.3888L28.0221 31.8678C29.3683 32.371 30.8765 31.7691 31.5063 30.4772C32.856 27.713 35.0216 23.3478 34.7364 21.7243C34.3129 19.3243 33.1835 18.4772 33.1835 18.4772L33.6536 15.6622C34.1294 12.8005 33.1482 10.0914 29.8052 9.77795C29.0993 9.71301 28.3129 9.84713 27.8936 10.4104C26.7642 11.9295 27.415 13.7987 25.7195 15.2104C23.6612 16.9088 19.0687 17.6499 17.9929 16.2791C17.9929 16.2791 18.0917 17.249 18.1722 18.3177Z" fill="#DE8276"/>
<path id="Path_6" d="M25.2113 24.3064C25.8896 25.0639 26.8195 25.5499 27.8287 25.6744" stroke="#00214E" stroke-width="0.884354"/>
<path id="Path_7" d="M28.5455 17.6414C28.5342 17.6908 30.4316 22.7421 30.4316 22.7421L27.8989 22.8649" stroke="#00214E" stroke-width="0.884354"/>
<path id="Path_8" d="M22.5488 16.6616C23.8557 16.3913 25.2 16.353 26.5201 16.5486" stroke="#00214E" stroke-width="0.884354"/>
<path id="Path_9" d="M30.8854 16.6799C31.6922 16.4919 32.5239 16.4342 33.3489 16.509" stroke="#00214E" stroke-width="0.884354"/>
<path id="Path_10" d="M40.0207 37.9793C30.5833 45.2459 17.4198 45.1878 8.047 37.8382L14.9166 34.6179C15.2438 34.4641 15.5578 34.2838 15.8555 34.0786C15.9458 34.0165 16.0362 33.9516 16.1223 33.8838C16.8699 33.3118 17.4854 32.5851 17.9265 31.7535C18.2601 31.1145 18.4816 30.4231 18.5816 29.7092C18.6813 29.8058 18.7859 29.8973 18.895 29.9831C19.7606 30.6232 20.7001 31.1569 21.6931 31.5728C22.1752 31.7739 22.6682 31.9478 23.1698 32.0937C24.681 32.5343 26.2588 32.7012 27.8286 32.5864C28.0461 32.5695 28.2649 32.5483 28.4823 32.5328L28.5035 33.2499V33.2965L30.2117 33.9911L40.0207 37.9793Z" fill="#00214E"/>
<path id="Path_11" d="M24.473 18.2485C25.3341 18.2485 25.3341 19.5728 24.473 19.5798H24.4334C23.5709 19.5798 23.5709 18.2556 24.4334 18.2485H24.4716H24.473Z" fill="#00214E"/>
<path id="Path_12" d="M31.5499 18.0522C32.349 18.0593 32.349 19.2805 31.5499 19.2875H31.5132C30.7142 19.2875 30.7142 18.0593 31.5132 18.0522H31.5499Z" fill="#00214E"/>
</g>
</g>
<defs>
<linearGradient id="paint0_linear_524_3367" x1="13.461" y1="26.2445" x2="36.0464" y2="26.2445" gradientUnits="userSpaceOnUse">
<stop stop-color="#16243F"/>
<stop offset="1" stop-color="#6878B1"/>
</linearGradient>
<linearGradient id="paint1_linear_524_3367" x1="26.7629" y1="16.8121" x2="36.2326" y2="19.4987" gradientUnits="userSpaceOnUse">
<stop stop-color="#16243F"/>
<stop offset="1" stop-color="#6878B1"/>
</linearGradient>
</defs>
</svg>
