<svg width="187" height="159" viewBox="0 0 187 159" fill="none" xmlns="http://www.w3.org/2000/svg">
<rect width="187" height="159" fill="#1E1E1E"/>
<rect x="-93" y="-217" width="2793" height="2177" rx="10" fill="white"/>
<path d="M178.917 8.5012H108.574V98.3668H178.917V8.5012Z" fill="white"/>
<path d="M178.917 41.0646H108.574V42.1548H178.917V41.0646Z" fill="#FFC7BD"/>
<path d="M178.917 69.1706H108.574V70.2608H178.917V69.1706Z" fill="#FFC7BD"/>
<path d="M178.917 97.2766H108.574V98.3668H178.917V97.2766Z" fill="#FFC7BD"/>
<path d="M144.555 8.5012H142.936V97.2766H144.555V8.5012Z" fill="#FCF4F3"/>
<path d="M146.119 69.166H154.454V55.2924H146.119V69.166Z" fill="#FCF4F3"/>
<path d="M144.978 55.2924H155.6V52.9326H144.978V55.2924Z" fill="#FFEBEB"/>
<path d="M147.191 66.9074H153.387V58.3514H147.191V66.9074Z" fill="#FFC7BD"/>
<path d="M157.352 69.166H165.688V55.2924H157.352V69.166Z" fill="#FCF4F3"/>
<path d="M156.212 55.2924H166.833V52.9326H156.212V55.2924Z" fill="#FFEBEB"/>
<path d="M158.424 66.9074H164.62V58.3514H158.424V66.9074Z" fill="#FFC7BD"/>
<path d="M168.586 69.166H176.921V55.2924H168.586V69.166Z" fill="#FCF4F3"/>
<path d="M167.445 55.2924H178.066V52.9326H167.445V55.2924Z" fill="#FFEBEB"/>
<path d="M169.657 66.9074H175.854V58.3514H169.657V66.9074Z" fill="#FFC7BD"/>
<path d="M121.072 97.2766H110.032V84.737C110.032 84.0892 110.29 83.4679 110.748 83.0098C111.206 82.5517 111.827 82.2944 112.475 82.2944H118.639C119.287 82.2944 119.908 82.5517 120.366 83.0098C120.824 83.4679 121.081 84.0892 121.081 84.737V97.2766H121.072Z" fill="#FCF4F3"/>
<path d="M112.346 82.3404H118.749V80.8132H112.346V82.3404Z" fill="#FCF4F3"/>
<path d="M110.718 80.8132H120.382V79.1802H110.718V80.8132Z" fill="#FFEBEB"/>
<path d="M111.794 94.0106H121.072V85.9238H111.794V94.0106Z" fill="#FFC7BD"/>
<path d="M133.423 97.2766H122.383V84.737C122.383 84.0892 122.641 83.4679 123.099 83.0098C123.557 82.5517 124.178 82.2944 124.826 82.2944H130.99C131.638 82.2944 132.259 82.5517 132.717 83.0098C133.175 83.4679 133.432 84.0892 133.432 84.737V97.2766H133.423Z" fill="#FCF4F3"/>
<path d="M124.702 82.3404H131.105V80.8132H124.702V82.3404Z" fill="#FCF4F3"/>
<path d="M123.069 80.8132H132.733V79.1802H123.069V80.8132Z" fill="#FFEBEB"/>
<path d="M124.145 94.0106H133.423V85.9238H124.145V94.0106Z" fill="#FFC7BD"/>
<path d="M145.641 41.1842H159.487V23.2764H145.641V41.1842Z" fill="#FCF4F3"/>
<path d="M145.641 23.2764H159.487L156.828 19.624H148.295L145.641 23.2764Z" fill="#FCF4F3"/>
<path d="M146.717 19.6194H158.41V16.0682H146.717V19.6194Z" fill="#FFC7BD"/>
<path d="M147.614 35.31H159.482V27.26H147.614V35.31Z" fill="#FFEBEB"/>
<path d="M160.522 41.1842H174.368V23.2764H160.522V41.1842Z" fill="#FCF4F3"/>
<path d="M160.522 23.2764H174.368L171.709 19.624H163.181L160.522 23.2764Z" fill="#FCF4F3"/>
<path d="M161.598 19.6194H173.291V16.0682H161.598V19.6194Z" fill="#FFC7BD"/>
<path d="M162.5 35.31H174.368V27.26H162.5V35.31Z" fill="#FFEBEB"/>
<path d="M138.115 41.06H113.303C112.617 41.06 111.96 40.7876 111.475 40.3028C110.99 39.818 110.718 39.1604 110.718 38.4748C110.718 37.7892 110.99 37.1316 111.475 36.6468C111.96 36.162 112.617 35.8896 113.303 35.8896H138.115C138.8 35.8908 139.456 36.1637 139.94 36.6484C140.424 37.1331 140.696 37.79 140.696 38.4748C140.696 39.1596 140.424 39.8165 139.94 40.3012C139.456 40.7859 138.8 41.0588 138.115 41.06Z" fill="#FFEBEB"/>
<path d="M138.115 35.54H113.303C112.618 35.54 111.961 35.2683 111.476 34.7844C110.992 34.3006 110.719 33.6442 110.718 32.9594C110.718 32.2738 110.99 31.6162 111.475 31.1314C111.96 30.6466 112.617 30.3742 113.303 30.3742H138.115C138.8 30.3754 139.456 30.6483 139.94 31.133C140.424 31.6177 140.696 32.2746 140.696 32.9594C140.696 33.6438 140.424 34.3002 139.94 34.7842C139.456 35.2681 138.8 35.54 138.115 35.54Z" fill="#FFEBEB"/>
<path d="M137.683 30.0568H113.731C113.243 30.0568 112.775 29.8629 112.43 29.5179C112.084 29.1728 111.891 28.7048 111.891 28.2168C111.891 27.7288 112.084 27.2608 112.43 26.9157C112.775 26.5707 113.243 26.3768 113.731 26.3768H137.683C138.171 26.3768 138.639 26.5707 138.984 26.9157C139.329 27.2608 139.523 27.7288 139.523 28.2168C139.523 28.7048 139.329 29.1728 138.984 29.5179C138.639 29.8629 138.171 30.0568 137.683 30.0568Z" fill="#FCF4F3"/>
<path d="M137.683 26.018H113.731C113.243 26.018 112.775 25.8241 112.43 25.4791C112.084 25.134 111.891 24.666 111.891 24.178C111.891 23.69 112.084 23.222 112.43 22.8769C112.775 22.5319 113.243 22.338 113.731 22.338H137.683C138.171 22.338 138.639 22.5319 138.984 22.8769C139.329 23.222 139.523 23.69 139.523 24.178C139.523 24.666 139.329 25.134 138.984 25.4791C138.639 25.8241 138.171 26.018 137.683 26.018Z" fill="#FCF4F3"/>
<path d="M178.917 118.239L143.801 118.368L108.574 118.441H108.372V118.239L108.344 102.723V102.493H108.574L143.746 102.557L178.917 102.645H179V102.723L178.917 118.239ZM178.917 118.239L178.839 102.723L178.917 102.806L143.746 102.893L108.574 102.953L108.804 102.723L108.776 118.239L108.574 118.041L143.695 118.115L178.917 118.239Z" fill="#FFC7BD"/>
<path d="M150.36 109.292H137.131V111.509H150.36V109.292Z" fill="#FFC7BD"/>
<path d="M178.917 137.43L143.801 137.559L108.574 137.632H108.372V137.43L108.344 121.914V121.684H108.574L143.746 121.749L178.917 121.836H179V121.914L178.917 137.43ZM178.917 137.43L178.839 121.914L178.917 121.997L143.746 122.084L108.574 122.144L108.804 121.914L108.776 137.43L108.574 137.232L143.695 137.306L178.917 137.43Z" fill="#FFC7BD"/>
<path d="M150.36 128.483H137.131V130.7H150.36V128.483Z" fill="#FFC7BD"/>
<path d="M178.917 156.621L143.801 156.75L108.574 156.824H108.372V156.621L108.344 141.105V140.88H108.574L143.746 140.944L178.917 141.027H179V141.105L178.917 156.621ZM178.917 156.621L178.839 141.105L178.917 141.188L143.746 141.271L108.574 141.34L108.804 141.11L108.776 156.626L108.574 156.428L143.695 156.502L178.917 156.621Z" fill="#FFC7BD"/>
<path d="M150.36 147.674H137.131V149.891H150.36V147.674Z" fill="#FFC7BD"/>
<path d="M37.826 0.1982H0.1474V45.9038H37.826V0.1982Z" fill="#FFE8ED"/>
<path d="M33.5204 4.3658H4.453V41.727H33.5204V4.3658Z" fill="white"/>
<path d="M5.5892 4.3658H4.453V41.727H5.5892V4.3658Z" fill="#FFEBEB"/>
<path d="M38.9622 0.198198H37.826V45.9038H38.9622V0.198198Z" fill="#FFEBEB"/>
<path d="M21.0452 9.5178H14.1912V29.9372H21.0452V9.5178Z" fill="#FFEBEB"/>
<path d="M29.7116 33.6586H10.9712V23.1936H29.7116V33.6586ZM11.4312 33.1986H29.2516V23.6536H11.4312V33.1986Z" fill="#FCF4F3"/>
<path d="M86.2916 33.7874H48.613V79.493H86.2916V33.7874Z" fill="#FCF4F3"/>
<path d="M81.986 37.9596H52.9186V75.3208H81.986V37.9596Z" fill="white"/>
<path d="M54.0548 37.9596H52.9186V75.3208H54.0548V37.9596Z" fill="#FFEBEB"/>
<path d="M87.4324 33.7874H86.2962V79.493H87.4324V33.7874Z" fill="#FFEBEB"/>
<path d="M70.5136 47.615H64.6394V62.4638H70.5136V47.615Z" fill="#FCF4F3"/>
<path d="M76.926 67.1052H60.688V56.4102H76.926V67.1052ZM61.148 66.6452H76.466V56.8702H61.148V66.6452Z" fill="#FFEBEB"/>
<path d="M170.472 129.444C170.472 129.444 178.324 127.664 182.629 123.699C186.935 119.734 189.336 112.627 189.336 112.627C186.351 113.194 183.408 113.963 180.527 114.927C179.451 116.038 178.552 117.309 177.864 118.694C177.796 117.799 177.796 116.899 177.864 116.003C176.857 116.436 175.916 117.008 175.067 117.701C171.479 120.838 170.472 129.444 170.472 129.444Z" fill="#FF7C65"/>
<path d="M184.433 116.081C185.504 115.341 186.595 114.628 187.653 113.878C187.663 113.868 187.67 113.854 187.672 113.839C187.673 113.824 187.67 113.809 187.661 113.797C187.653 113.784 187.641 113.775 187.627 113.771C187.613 113.766 187.597 113.767 187.584 113.772C185.564 114.982 183.568 116.275 181.636 117.627C180.964 118.102 180.302 118.59 179.649 119.09L179.787 118.86C180.021 118.464 180.247 118.078 180.518 117.691C181.011 116.903 181.569 116.159 182.188 115.465C182.211 115.437 182.188 115.401 182.146 115.428C181.539 116.132 180.927 116.831 180.366 117.576C180.102 117.935 179.854 118.303 179.621 118.68C179.501 118.874 179.382 119.071 179.267 119.274L179.152 119.476C178.135 120.272 177.146 121.105 176.203 121.983C175.621 122.526 175.058 123.087 174.515 123.667C174.819 122.719 175.085 121.758 175.435 120.819C175.435 120.787 175.398 120.773 175.384 120.819C175.044 121.799 174.667 122.784 174.405 123.796C173.802 124.444 173.227 125.116 172.684 125.82L172.712 125.691C172.804 125.318 172.896 124.95 172.992 124.582C173.186 123.874 173.393 123.165 173.632 122.471C174.084 121.024 174.8 119.674 175.743 118.487C175.766 118.46 175.743 118.423 175.706 118.45C174.235 120.284 173.205 122.433 172.698 124.729C172.615 125.065 172.532 125.401 172.459 125.737C172.417 125.916 172.371 126.096 172.339 126.28C172.105 126.602 171.879 126.924 171.645 127.255C170.307 129.302 169.194 131.487 168.323 133.773C167.343 136.341 166.503 138.961 165.807 141.621C165.807 141.671 165.872 141.69 165.885 141.621C167.422 137.021 168.99 132.365 171.622 128.258C172.178 127.388 172.776 126.556 173.416 125.746C174.716 125.664 176 125.409 177.234 124.987C178.582 124.537 179.868 123.919 181.061 123.147C181.739 122.688 182.393 122.193 183.02 121.666C183.025 121.664 183.028 121.662 183.031 121.659C183.034 121.656 183.036 121.652 183.038 121.648C183.039 121.643 183.039 121.639 183.038 121.635C183.037 121.63 183.036 121.626 183.033 121.623C183.03 121.619 183.027 121.617 183.023 121.615C183.019 121.613 183.015 121.612 183.01 121.612C183.006 121.612 183.002 121.614 182.998 121.616C182.994 121.618 182.991 121.621 182.988 121.624C181.893 122.508 180.683 123.24 179.391 123.8C178.121 124.384 176.791 124.83 175.426 125.13C174.846 125.258 174.262 125.35 173.673 125.429C174.395 124.535 175.162 123.68 175.973 122.866C176.24 122.6 176.511 122.347 176.787 122.094C177.702 121.45 178.673 120.893 179.69 120.428C180.973 119.807 182.243 119.15 183.517 118.501C184.235 118.133 184.948 117.76 185.675 117.406C185.702 117.406 185.675 117.346 185.642 117.36C184.354 117.986 183.043 118.565 181.742 119.163C180.513 119.725 179.271 120.29 178.098 120.953L177.947 121.04C179.014 120.12 180.113 119.232 181.24 118.381C182.303 117.595 183.361 116.822 184.433 116.081Z" fill="#263238"/>
<path d="M183.986 120.129C183.347 120.41 182.698 120.658 182.064 120.953C181.429 121.247 180.799 121.615 180.182 121.979C180.177 121.982 180.173 121.987 180.171 121.993C180.169 121.999 180.17 122.005 180.173 122.011C180.176 122.016 180.181 122.02 180.187 122.022C180.193 122.024 180.2 122.023 180.205 122.02C180.835 121.721 181.466 121.44 182.087 121.128C182.708 120.815 183.352 120.465 184 120.18C184.032 120.18 184.019 120.116 183.986 120.129Z" fill="#263238"/>
<path d="M144.96 89.866C146.413 91.7374 147.236 94.0208 147.311 96.3888C147.311 97.0926 147.223 98.077 147.14 99.2316C149.1 100.37 150.835 101.858 152.26 103.62C150.693 102.711 148.894 102.28 147.085 102.378C147.124 103.168 147.224 103.954 147.384 104.729C148.526 104.73 149.658 104.953 150.715 105.386C149.683 105.374 148.659 105.577 147.711 105.984C149.091 110.437 153.272 115.01 164.763 116.955C165.982 111.493 165.263 105.777 162.73 100.786C159.284 94.0014 144.96 89.866 144.96 89.866Z" fill="#FF7C65"/>
<path d="M168.742 136.004C168.54 134.1 168.291 132.203 167.997 130.314C167.419 126.527 166.652 122.772 165.697 119.062C165.246 117.322 164.692 115.611 164.036 113.938C164.07 113.632 164.085 113.325 164.082 113.018C164.082 112.65 164.082 112.282 164.082 111.914C164.082 111.178 164.041 110.446 163.976 109.71C163.859 108.257 163.624 106.815 163.273 105.4C163.061 104.586 162.813 103.776 162.578 102.967C162.578 102.959 162.575 102.952 162.57 102.947C162.565 102.942 162.558 102.939 162.55 102.939C162.543 102.939 162.536 102.942 162.531 102.947C162.526 102.952 162.523 102.959 162.523 102.967C162.904 104.389 163.184 105.838 163.36 107.3C163.565 108.73 163.694 110.171 163.746 111.615C163.746 112.01 163.769 112.406 163.769 112.802C163.769 112.967 163.769 113.137 163.769 113.308C163.204 111.935 162.557 110.597 161.833 109.301C160.666 107.246 159.351 105.278 157.9 103.413C157.898 103.196 157.865 102.981 157.803 102.774C157.753 102.516 157.693 102.258 157.638 102.005C157.518 101.476 157.389 100.957 157.247 100.437C156.961 99.3972 156.584 98.3898 156.258 97.364C156.259 97.3598 156.26 97.3552 156.26 97.3506C156.259 97.3461 156.258 97.3417 156.255 97.3378C156.253 97.334 156.249 97.3309 156.245 97.3287C156.241 97.3265 156.237 97.3254 156.232 97.3254C156.228 97.3254 156.223 97.3265 156.219 97.3287C156.215 97.3309 156.212 97.334 156.209 97.3378C156.207 97.3417 156.205 97.3461 156.205 97.3506C156.204 97.3552 156.205 97.3598 156.207 97.364C156.511 98.3806 156.713 99.434 156.943 100.474C157.058 100.984 157.173 101.499 157.283 102.01L157.449 102.778C157.449 102.778 157.449 102.82 157.449 102.838C156.986 102.252 156.512 101.674 156.028 101.104C153.833 98.5324 151.428 96.1588 149.003 93.8036C148.709 93.5138 148.401 93.2286 148.083 92.9434C148.056 92.9434 148.019 92.9434 148.047 92.9802C150.347 95.3952 152.647 97.8378 154.795 100.395C155.31 101.003 155.811 101.614 156.308 102.235C156.046 102.056 155.784 101.886 155.526 101.716C154.855 101.279 154.178 100.851 153.484 100.46C152.789 100.069 152.081 99.687 151.368 99.3328C150.655 98.9786 149.841 98.6704 149.132 98.2564C149.1 98.2564 149.072 98.2932 149.105 98.3024C149.835 98.6443 150.541 99.0378 151.216 99.48C151.915 99.894 152.596 100.313 153.3 100.75C154.004 101.187 154.652 101.601 155.324 102.033C155.885 102.396 156.432 102.797 157.012 103.128C158.343 104.84 159.571 106.63 160.692 108.487C161.388 109.657 162.022 110.862 162.592 112.098L162.182 111.918L161.129 111.458L159.096 110.571C157.808 110.014 156.497 109.499 155.236 108.882C154.523 108.547 153.833 108.164 153.171 107.737C153.143 107.737 153.116 107.765 153.148 107.783C155.503 109.407 158.144 110.543 160.752 111.707L161.883 112.208C162.192 112.342 162.504 112.498 162.803 112.618C163.579 114.344 164.229 116.125 164.749 117.944C165.777 121.602 166.61 125.312 167.247 129.058C167.909 132.812 168.351 136.588 168.696 140.383C168.742 140.843 168.783 141.331 168.839 141.805C168.845 141.84 168.863 141.872 168.891 141.895C168.918 141.917 168.952 141.93 168.988 141.93C169.024 141.93 169.058 141.917 169.086 141.895C169.113 141.872 169.131 141.84 169.138 141.805C169.138 139.845 168.94 137.918 168.742 136.004Z" fill="#263238"/>
<path d="M161.75 104.269C161.538 103.1 161.226 101.969 160.913 100.814C160.913 100.782 160.853 100.814 160.862 100.814C161.152 101.936 161.359 103.082 161.571 104.218C161.782 105.354 161.975 106.546 162.141 107.719H162.173C162.096 106.562 161.954 105.41 161.75 104.269Z" fill="#263238"/>
<path d="M156.796 107.438C155.997 106.911 155.162 106.441 154.298 106.03C153.879 105.814 153.456 105.612 153.033 105.405C152.61 105.198 152.141 105.014 151.704 104.798C151.676 104.798 151.648 104.83 151.681 104.844C152.099 105.055 152.499 105.304 152.909 105.534L154.188 106.233C155.014 106.714 155.865 107.153 156.736 107.548C156.75 107.552 156.765 107.551 156.778 107.546C156.792 107.54 156.803 107.53 156.81 107.517C156.817 107.504 156.819 107.489 156.817 107.475C156.814 107.461 156.807 107.448 156.796 107.438Z" fill="#263238"/>
<path opacity="0.1" d="M170.614 115.842C170.614 115.842 177.878 114.108 181.217 109.232C184.405 104.577 185.431 96.6372 185.514 95.9426C185.385 96.582 183.885 103.519 178.936 106.748C175.15 109.223 171.488 111.261 170.614 115.842Z" fill="#263238"/>
<path d="M177.321 103.284C176.028 104.473 175.098 106.004 174.639 107.7C174.639 107.7 174.639 107.723 174.662 107.7C175.197 106.047 176.119 104.545 177.353 103.321C177.381 103.303 177.344 103.261 177.321 103.284Z" fill="#263238"/>
<path d="M170.614 115.842C170.614 115.842 177.878 114.108 181.217 109.232C184.405 104.577 185.431 96.6372 185.514 95.9426C185.515 95.9258 185.515 95.9088 185.514 95.892C185.514 95.892 182.031 100.846 178.365 102.111C174.699 103.376 169.561 107.76 170.614 115.842Z" fill="#FF7C65"/>
<path d="M184.235 98.6244C183.584 99.9591 182.833 101.243 181.99 102.465C181.142 103.626 180.135 104.661 179 105.543C178.011 106.325 176.967 107.038 175.969 107.806C175.968 107.794 175.968 107.781 175.969 107.769C176.157 107.489 176.355 107.222 176.562 106.955C176.981 106.426 177.436 105.92 177.891 105.428C178.811 104.448 179.731 103.487 180.527 102.424C180.976 101.838 181.365 101.209 181.691 100.547C181.691 100.515 181.654 100.501 181.64 100.547C180.463 103.004 178.108 104.577 176.429 106.651C176.189 106.946 175.965 107.253 175.757 107.571C175.591 107.802 175.45 108.051 175.338 108.312C174.418 109.049 173.586 109.89 172.859 110.819C172.922 110.342 173.021 109.87 173.153 109.407C173.321 108.76 173.58 108.141 173.922 107.567C173.922 107.539 173.894 107.507 173.876 107.539C173.522 108.117 173.237 108.735 173.029 109.379C172.876 109.889 172.788 110.416 172.767 110.948C172.408 111.436 172.079 111.946 171.783 112.475C171.815 112.319 171.842 112.167 171.875 112.015C172.017 111.293 172.178 110.571 172.367 109.853C172.71 108.398 173.301 107.013 174.115 105.759C174.115 105.731 174.087 105.704 174.069 105.731C173.235 106.967 172.583 108.317 172.132 109.738C171.902 110.451 171.714 111.173 171.553 111.905C171.476 112.263 171.402 112.622 171.332 112.981C171.295 113.17 171.258 113.358 171.226 113.551C170.505 115.134 169.944 116.784 169.552 118.478C168.837 121.508 168.319 124.581 168.001 127.678C167.627 130.899 167.46 134.141 167.5 137.384C167.5 137.793 167.528 138.203 167.551 138.612C167.551 138.718 167.716 138.732 167.721 138.612C167.79 136.998 167.836 135.392 167.928 133.773C168.02 132.154 168.167 130.553 168.337 128.943C168.669 125.787 169.174 122.651 169.851 119.55C170.439 116.891 171.231 114.218 172.657 111.891C173.379 110.732 174.262 109.682 175.279 108.772C176.3 107.852 177.413 107.056 178.499 106.21C179.587 105.385 180.575 104.436 181.443 103.381C182.325 102.206 183.095 100.951 183.743 99.6318C183.913 99.3006 184.088 98.974 184.262 98.6428C184.295 98.6244 184.249 98.5922 184.235 98.6244Z" fill="#263238"/>
<path d="M182.979 99.6916C182.503 100.67 181.962 101.615 181.36 102.521C181.36 102.544 181.36 102.562 181.397 102.544C182.019 101.644 182.565 100.695 183.03 99.7054C183.048 99.6778 182.997 99.6594 182.979 99.6916Z" fill="#263238"/>
<path d="M143.943 112.627C143.943 112.627 143.828 122.94 150.02 125.935C156.212 128.929 159.505 126.436 163.7 127.434C163.539 127.186 160.545 122.88 155.779 121.698C150.857 120.47 145.42 116.932 143.943 112.627Z" fill="#FF7C65"/>
<path opacity="0.1" d="M143.943 112.627C143.943 112.627 143.828 122.94 150.02 125.935C156.212 128.929 159.505 126.436 163.7 127.434C161.484 126.377 159.115 125.677 156.681 125.36C152.78 124.89 145.323 122.351 143.943 112.627Z" fill="black"/>
<path d="M164.091 127.618C163.358 126.947 162.53 126.386 161.635 125.953C161.506 125.889 161.368 125.838 161.235 125.783L161.028 125.544C160.839 125.35 160.646 125.166 160.444 124.992C160.056 124.657 159.641 124.357 159.202 124.095C158.18 123.497 157.058 123.073 156.014 122.517C156.011 122.514 156.007 122.512 156.003 122.51C155.999 122.509 155.995 122.509 155.991 122.509C155.987 122.51 155.983 122.511 155.979 122.513C155.976 122.516 155.973 122.519 155.971 122.522C155.969 122.526 155.967 122.53 155.967 122.534C155.967 122.538 155.967 122.542 155.969 122.546C155.97 122.55 155.972 122.554 155.976 122.557C155.979 122.559 155.982 122.562 155.986 122.563C156.501 122.83 157.003 123.129 157.509 123.418C158.015 123.708 158.498 123.98 158.972 124.288C159.402 124.564 159.811 124.871 160.195 125.208C160.306 125.3 160.407 125.406 160.513 125.511C159.83 125.28 159.132 125.094 158.424 124.955C157.293 124.725 156.152 124.564 155.025 124.325C154.471 124.2 153.925 124.047 153.387 123.865C152.872 123.451 152.361 123.041 151.874 122.595C151.287 122.056 150.753 121.463 150.278 120.824C150.278 120.796 150.213 120.824 150.236 120.852C150.983 121.865 151.831 122.801 152.766 123.644C152.499 123.543 152.237 123.437 151.975 123.317C149.855 122.366 148.035 120.853 146.713 118.943C146.713 118.91 146.648 118.943 146.667 118.97C147.791 120.61 149.241 122 150.926 123.055C151.771 123.582 152.674 124.01 153.617 124.329C154.711 124.669 155.827 124.933 156.957 125.12C158.066 125.299 159.161 125.559 160.232 125.898C161.223 126.23 162.154 126.717 162.992 127.342C164.559 128.569 165.819 130.144 166.672 131.942C167.777 134.327 168.468 136.883 168.714 139.5C168.714 139.61 168.898 139.61 168.889 139.5C168.599 135.148 167.44 130.631 164.091 127.618Z" fill="#263238"/>
<path d="M156.92 124.251C156.597 123.768 156.161 123.372 155.65 123.096C155.066 122.791 154.552 122.366 154.142 121.85C154.142 121.822 154.077 121.85 154.096 121.877C154.467 122.351 154.919 122.755 155.43 123.073C155.991 123.37 156.486 123.779 156.883 124.274C156.92 124.32 156.943 124.274 156.92 124.251Z" fill="#263238"/>
<path d="M160.204 135.24L160.485 140.917L161.345 158.268H174.299L175.159 140.917L175.44 135.24H160.204Z" fill="#455A64"/>
<path d="M160.204 135.24L160.485 140.917H175.159L175.44 135.24H160.204Z" fill="#263238"/>
<path d="M159.294 138.29H176.35V132.871H159.294V138.29Z" fill="#455A64"/>
<path d="M-8.13721 158.277H53.3924L41.1242 86.9174H-4.88501L-8.13721 158.277Z" fill="#FCF4F3"/>
<path d="M-8.13721 158.277H-2.74141L0.285394 86.9174H-4.88501L-8.13721 158.277Z" fill="#FFC7BD"/>
<path d="M34.2748 45.5726C33.0972 45.7382 27.9406 45.1908 24.5504 49.9012C21.3304 54.3632 20.3322 67.8412 19.6652 70.7852C18.9982 73.7292 15.1526 74.203 14.2786 77.6208C13.5242 80.5602 15.6586 81.6182 15.9116 83.7664C16.0956 85.4316 14.4396 87.9478 15.9852 90.4042C17.3928 92.6352 19.8216 92.1338 21.2982 92.8238C22.7748 93.5138 23.7224 96.9086 26.4548 97.801C29.1872 98.6934 31.5654 96.1864 33.0098 96.1864C34.4542 96.1864 36.2298 100.602 40.9126 100.17C45.5954 99.7376 46.9432 95.7356 48.8844 94.9352C50.8256 94.1348 55.7154 95.4366 57.9234 92.9894C60.1314 90.5422 60.481 87.2854 61.4746 86.0894C62.4682 84.8934 64.5658 85.059 65.7894 82.2806C67.013 79.5022 64.4094 77.7726 64.0414 75.3806C63.77 73.7108 65.242 72.1606 64.1748 69.6214C62.7074 66.1254 58.4202 66.9166 56.7458 63.3286C55.4348 60.5134 52.661 48.2544 45.209 45.2966C40.08 43.2496 34.2748 45.5726 34.2748 45.5726Z" fill="#263238"/>
<path d="M19.7986 70.0768C19.5205 70.7006 19.0941 71.247 18.5566 71.6684L17.034 73.007C15.9953 73.8264 15.0906 74.8026 14.3522 75.9004C14.011 76.425 13.7953 77.0212 13.7219 77.6427C13.6485 78.2641 13.7194 78.8942 13.929 79.4838C14.1779 80.0733 14.5162 80.621 14.9318 81.1076C15.412 81.6374 15.8104 82.2358 16.114 82.8832C16.2994 83.6211 16.2397 84.3994 15.9438 85.1004C15.7276 85.7582 15.4838 86.3838 15.3136 87.014C14.9456 88.2606 14.8536 89.59 15.4746 90.694C15.754 91.2462 16.2108 91.6885 16.7718 91.9498C17.3705 92.1964 18.0104 92.3275 18.6578 92.3362C19.3202 92.3776 19.9918 92.3362 20.6726 92.3362C21.3569 92.2783 22.0428 92.4273 22.6414 92.764C22.022 92.5074 21.3428 92.4308 20.6818 92.5432C20.0102 92.5938 19.3386 92.6812 18.6532 92.6996C17.9488 92.7291 17.2454 92.6197 16.5832 92.3776C15.8966 92.1041 15.3227 91.6064 14.9548 90.9654C14.1498 89.7096 14.274 88.1042 14.6374 86.8024C14.8122 86.1308 15.0468 85.4868 15.2354 84.8566C15.4689 84.3077 15.5221 83.6988 15.3872 83.1178C14.9732 82.046 13.7496 81.0938 13.2758 79.7C13.0318 79.0145 12.9567 78.2803 13.0568 77.5597C13.1569 76.839 13.4293 76.153 13.8508 75.56C14.6739 74.453 15.6694 73.4854 16.7994 72.6942L18.4278 71.489C18.9826 71.1243 19.4505 70.6422 19.7986 70.0768Z" fill="#263238"/>
<path d="M52.1412 52.1552C53.4476 54.2068 54.2664 56.5068 55.2968 58.678C55.8166 59.7636 56.295 60.8676 56.8838 61.898C57.1582 62.4043 57.4868 62.8793 57.8636 63.3148C57.9416 63.4174 58.0365 63.5061 58.1442 63.577C58.2432 63.6605 58.3531 63.7301 58.4708 63.784C58.7238 63.9174 58.9952 64.0324 59.2666 64.1474C60.4023 64.5919 61.5139 65.0955 62.597 65.6562C63.7408 66.2358 64.6775 67.1548 65.2788 68.2874C65.5686 68.8722 65.7032 69.5216 65.6698 70.1734C65.6102 70.8033 65.4289 71.4157 65.1362 71.9766C64.5842 73.0576 64.0644 74.1386 64.0414 75.3714C63.8804 74.1478 64.3588 72.9334 64.7912 71.8294C65.0256 71.3008 65.1583 70.7327 65.1822 70.155C65.1766 69.5948 65.0277 69.0453 64.7498 68.5588C64.1582 67.5676 63.2922 66.7688 62.2566 66.2588C61.1836 65.7308 60.0843 65.2579 58.963 64.842C58.6824 64.7178 58.4018 64.589 58.1212 64.4418C57.8156 64.2803 57.5439 64.0617 57.3208 63.7978C56.9136 63.3125 56.5618 62.7833 56.272 62.22C55.6969 61.1443 55.1899 60.0335 54.754 58.8942L53.4706 55.4994C53.0951 54.359 52.6511 53.2422 52.1412 52.1552Z" fill="#263238"/>
<path d="M62.62 85.2522C62.1094 85.9514 62.0496 86.853 61.8656 87.6856C61.6816 88.5182 61.516 89.383 61.2998 90.2294C61.0923 91.0917 60.7964 91.9303 60.4166 92.7318C60.031 93.576 59.4452 94.3134 58.71 94.88C57.0724 95.9472 55.1174 95.8414 53.4246 95.5516C52.5644 95.3998 51.7226 95.202 50.8762 95.0916C50.0405 94.9014 49.1714 94.914 48.3416 95.1284C49.1481 94.7636 50.0374 94.6207 50.9176 94.7144C51.7916 94.7742 52.6518 94.903 53.5028 94.9812C55.1772 95.1422 56.962 95.1514 58.2684 94.2636C58.9054 93.7761 59.419 93.1459 59.768 92.4236C60.1524 91.672 60.4754 90.8905 60.734 90.0868C61.0146 89.2772 61.2492 88.4446 61.4976 87.6166C61.6356 87.2026 61.7736 86.7886 61.93 86.3792C62.0538 85.948 62.2923 85.5585 62.62 85.2522Z" fill="#263238"/>
<path d="M50.2368 98.4082C60.1636 103.298 94.521 117.052 104.121 111.596C110.419 108.018 129.881 86.876 129.035 78.5454C128.667 74.9206 112.245 62.0222 109.949 65.1732C107.654 68.3242 92.589 85.8732 89.9486 87.152C87.3082 88.4308 55.3658 84.392 45.462 85.1648C28.3914 86.4804 44.8916 95.8 50.2368 98.4082Z" fill="#D3766A"/>
<path d="M102.516 69.8468L123.575 92.4558C123.575 92.4558 109.448 110.658 99.7282 114.333C87.92 118.8 50.8808 101.582 45.14 98.445C35.7514 93.2976 32.72 87.9662 37.941 85.542C39.9558 84.5852 43.2264 84.0792 47.8632 84.208C52.707 84.3276 82.0504 86.8714 89.6312 85.657C93.9 84.9762 102.516 69.8468 102.516 69.8468Z" fill="#FCF4F3"/>
<path d="M118.427 95.3124C115.207 92.0648 102.553 78.2924 100.027 75.1322C99.8524 74.916 99.949 74.7504 100.161 74.9528C110.023 84.4564 115.571 91.8348 118.561 95.1928C118.625 95.2618 118.505 95.3952 118.427 95.3124Z" fill="#263238"/>
<path d="M64.9614 158.268C64.9614 158.268 4.545 158.268 4.292 158.268C4.292 158.268 4.476 156.851 4.8302 155.011C4.8302 154.947 4.8302 154.887 4.867 154.823C4.9038 154.758 4.867 154.8 4.867 154.786C4.9176 154.519 4.9728 154.238 5.028 153.939C5.2304 152.914 5.488 151.718 5.741 150.37C6.7024 145.65 8.11 139.123 9.881 132.011C10.065 131.261 10.2582 130.507 10.4514 129.748C10.847 128.198 11.261 126.625 11.6888 125.042C11.7578 124.798 11.8222 124.555 11.8912 124.311C11.8912 124.237 11.9326 124.164 11.951 124.09C12.02 123.846 12.0844 123.602 12.1534 123.354C15.1112 112.691 18.759 101.821 22.8392 94.443C23.9815 92.2952 25.3709 90.2882 26.9792 88.463C27.6601 87.7167 28.3967 87.0232 29.1826 86.3884C29.3988 86.2182 29.6104 86.0526 29.822 85.8962C30.0336 85.7398 30.282 85.5834 30.4798 85.4362C31.0668 85.0436 31.6818 84.6946 32.3198 84.392C32.7781 84.1724 33.2498 83.9819 33.732 83.8216C34.077 83.702 34.422 83.6054 34.7624 83.5226C37.3541 82.8763 40.0921 83.1884 42.472 84.4012C42.9967 84.6733 43.5023 84.9807 43.9854 85.3212C44.1004 85.404 44.2154 85.4868 44.3258 85.5742C44.8536 85.973 45.3517 86.4096 45.8162 86.8806L45.9542 87.0278C46.2164 87.3268 46.6856 87.911 47.302 88.7114C48.1024 89.7464 49.142 91.154 50.3426 92.787C50.7658 93.3666 51.2013 93.9723 51.649 94.604L51.7686 94.7742C51.8974 94.949 52.0216 95.1284 52.1458 95.3078C52.8726 96.3336 53.6178 97.4146 54.363 98.5278C54.9288 99.3604 55.4946 100.211 56.0512 101.067C56.8102 102.226 57.5508 103.395 58.2546 104.549C59.8525 107.082 61.2476 109.736 62.4268 112.489C62.6761 113.105 62.8851 113.736 63.0524 114.379C63.0701 114.44 63.0839 114.501 63.0938 114.563C63.0938 114.619 63.1214 114.678 63.1352 114.734C63.3138 115.621 63.4017 116.524 63.3974 117.429C63.3907 118.633 63.2628 119.834 63.0156 121.013L62.9742 121.22C62.4959 123.41 61.7497 125.532 60.7524 127.54C60.7509 127.551 60.7509 127.562 60.7524 127.572L60.5914 127.89C60.4212 128.207 60.32 128.382 60.32 128.382V128.442L60.412 129.063L61.5528 136.883L63.2226 148.383L64.9614 158.268Z" fill="#FF7C65"/>
<path d="M2.245 158.268C2.4474 157.164 2.6498 156.06 2.8568 154.97C2.8568 154.942 2.8568 154.91 2.8568 154.882V154.804C2.9074 154.533 2.95799 154.261 3.01319 153.99C4.29199 147.43 5.58 141.142 6.96 135.383C7.121 134.679 7.2866 133.98 7.4522 133.295C8.064 130.76 8.6804 128.34 9.2922 126.059C9.3198 125.967 9.34279 125.875 9.37039 125.783C9.42099 125.594 9.4716 125.406 9.5268 125.222C9.605 124.927 9.6878 124.637 9.7706 124.352C10.571 121.542 11.3806 118.966 12.1948 116.675C15.9898 106.017 19.5548 98.8682 22.5816 94.0796C24.9184 90.3996 26.9516 88.0996 28.5616 86.669C29.0135 86.2589 29.4897 85.8765 29.9876 85.5236L30.1026 85.4454C31.5332 84.461 32.3428 84.3552 32.3428 84.3552V84.392C32.3428 84.4564 32.3428 84.599 32.3428 84.8198C32.3428 85.2798 35.3742 99.94 35.4156 101.729C35.5076 105.704 38.8656 155.365 38.907 158.273C38.907 158.277 2.245 158.268 2.245 158.268Z" fill="#FCF4F3"/>
<path d="M65.38 158.268H53.351C53.351 158.236 53.351 158.199 53.351 158.167C52.96 154.16 52.5782 150.19 52.2102 146.294C52.1826 146.046 52.1596 145.802 52.1366 145.554C51.8974 143.051 51.6766 140.576 51.4328 138.152C51.4328 138.065 51.4328 137.977 51.4328 137.89C51.12 134.601 50.8164 131.395 50.5128 128.294C50.5128 128.199 50.5036 128.103 50.4852 128.005C50.1724 124.683 49.8734 121.491 49.5928 118.455C49.5928 118.391 49.5928 118.331 49.5928 118.266V118.101C49.3214 115.212 49.0132 112.457 48.6728 109.858C48.1852 106.017 47.6608 102.521 47.1456 99.4524C46.9984 98.5692 46.8527 97.7228 46.7086 96.9132C46.681 96.7614 46.6534 96.6142 46.6304 96.4532C45.646 90.9838 44.7904 87.2946 44.4822 86.025C44.4316 85.8088 44.3948 85.6662 44.3764 85.5926C44.3755 85.5773 44.3755 85.5619 44.3764 85.5466C44.9368 85.9074 45.4393 86.351 45.8668 86.8622L46.0048 87.0094C46.382 87.4188 46.796 87.8972 47.2514 88.44C48.1714 89.5164 49.1834 90.8366 50.2828 92.3178C50.8225 93.0415 51.373 93.7959 51.9342 94.581L52.0814 94.7834L52.477 95.3446C53.6362 96.9868 54.8184 98.7348 55.9592 100.492L56.3824 101.159C57.123 102.314 57.836 103.459 58.5076 104.604C60.0516 107.116 61.3899 109.748 62.5096 112.475C62.7501 113.086 62.9484 113.713 63.103 114.352C63.1207 114.412 63.1345 114.474 63.1444 114.536C63.1444 114.637 63.1858 114.734 63.2042 114.83C63.3512 115.68 63.4327 116.539 63.448 117.402C63.4722 118.607 63.3766 119.812 63.1628 120.999C63.1628 121.091 63.1306 121.183 63.1168 121.27C62.6867 123.478 61.8874 125.598 60.7524 127.54C60.7509 127.551 60.7509 127.562 60.7524 127.572L60.5822 127.839V127.89L60.6788 128.501L60.7662 129.063L61.9438 136.492L64.851 154.786L65.38 158.268Z" fill="#FCF4F3"/>
<path d="M65.2006 158.268H64.9614C64.7176 156.929 64.4462 155.6 64.207 154.261C63.8574 152.306 63.5308 150.351 63.2134 148.387C63.1858 148.231 63.1628 148.07 63.1352 147.927C62.5464 144.279 62.0174 140.622 61.4884 136.965L61.2124 135.056C60.9272 133.065 60.619 131.068 60.3614 129.076C60.3338 128.869 60.3062 128.658 60.2832 128.451L60.2004 127.765C60.1728 127.499 61.2676 125.764 61.5804 125.102C62.0127 124.203 62.3667 123.269 62.6384 122.31C62.7442 121.937 62.8408 121.56 62.9144 121.178C62.9278 121.127 62.9385 121.074 62.9466 121.022C63.2573 119.47 63.3256 117.879 63.149 116.307C62.9924 114.988 62.6837 113.691 62.229 112.443C61.309 109.839 59.8554 107.41 58.3972 105.083L57.997 104.448C57.2656 103.284 56.525 102.125 55.789 100.966C55.3014 100.193 54.8184 99.4202 54.34 98.6382C54.3355 98.6296 54.3331 98.6201 54.3328 98.6104C54.3326 98.6007 54.3345 98.5911 54.3385 98.5822C54.3425 98.5734 54.3484 98.5655 54.3558 98.5593C54.3633 98.5531 54.372 98.5486 54.3814 98.5462C54.3897 98.5391 54.4003 98.5352 54.4113 98.5352C54.4223 98.5352 54.4329 98.5391 54.4412 98.5462C54.938 99.1994 55.4333 99.8572 55.927 100.52L56.4514 101.228C57.1077 102.127 57.7624 103.025 58.4156 103.924C58.0798 103.169 57.7486 102.41 57.4358 101.624C57.3438 101.412 57.261 101.196 57.1736 100.98C57.1276 100.869 57.2886 100.773 57.3392 100.888C57.4772 101.173 57.6106 101.463 57.7394 101.752C58.1994 102.741 58.6042 103.744 59.0182 104.747L59.1148 104.885C60.2381 106.461 61.2377 108.122 62.1048 109.853C62.5635 110.79 62.9539 111.758 63.2732 112.751C64.1864 115.436 64.4094 118.307 63.9218 121.1C63.8758 121.371 63.816 121.643 63.7516 121.914C63.7536 121.936 63.7536 121.957 63.7516 121.979C63.479 123.093 63.0808 124.174 62.5648 125.199C62.206 125.912 61.0514 127.457 61.0514 127.499L61.2446 128.598C61.2676 128.727 61.286 128.86 61.309 128.989C61.7 131.289 62.0404 133.63 62.3716 135.953C62.574 137.389 62.7718 138.824 62.9742 140.254C63.5768 144.56 64.1886 148.861 64.69 153.18C64.7498 153.7 64.805 154.22 64.8602 154.74C64.9614 155.945 65.0718 157.109 65.2006 158.268Z" fill="#263238"/>
<path d="M44.4408 86.0296C45.8637 88.1763 47.3081 90.3153 48.774 92.4466C50.2552 94.558 51.7042 96.697 53.2084 98.79L53.2406 98.2886L49.6204 102.084L49.3214 102.396L49.6388 102.705C51.1614 104.181 52.7162 105.63 54.2618 107.084L54.133 106.707C53.5718 110.64 52.9692 114.563 52.4678 118.506C51.9664 122.448 51.442 126.385 51.005 130.337C51.7548 126.431 52.4402 122.517 53.0934 118.602C53.7466 114.688 54.363 110.759 54.984 106.835L55.0208 106.615L54.8552 106.458C53.3234 104.991 51.8008 103.514 50.2552 102.065V102.686L53.8064 98.8268L54.0272 98.5876L53.8386 98.3254C52.316 96.2416 50.7336 94.1854 49.1834 92.143C47.6332 90.1006 46.06 88.0536 44.4408 86.0296Z" fill="#A6A6A6"/>
<path d="M20.806 95.7356C5.741 117.02 -3.712 148.76 5.53861 154.616C11.6842 158.498 24.4308 123.336 23.9984 123.51C23.0784 123.888 26.4134 111.808 30.5488 97.1524C35.1626 80.7948 29.4126 83.5686 20.806 95.7356Z" fill="#D3766A"/>
<path d="M28.3362 86.2504C16.6798 95.34 -4.8344 137.821 3.0408 153.052C9.4256 165.398 25.6452 123.363 25.2312 122.866C24.8172 122.37 29.3022 106.205 31.133 99.6272C32.9638 93.0492 34.56 81.4158 28.3362 86.2504Z" fill="#FCF4F3"/>
<path d="M28.9112 111.219C28.5202 111.895 28.1338 112.567 27.7704 113.262C27.706 113.39 27.6462 113.524 27.5818 113.653C27.6646 113.308 27.7428 112.963 27.8256 112.618C28.1576 111.415 28.4263 110.196 28.6306 108.965C28.6311 108.953 28.6274 108.942 28.6204 108.933C28.6133 108.923 28.6032 108.917 28.5918 108.914C28.5804 108.911 28.5684 108.913 28.5578 108.918C28.5473 108.923 28.5389 108.932 28.534 108.942C28.0971 110.165 27.7255 111.41 27.4208 112.673C27.0758 113.892 26.7262 115.111 26.4088 116.353C26.0914 117.595 25.751 118.809 25.452 120.033C25.1158 121.241 24.8638 122.47 24.6976 123.713C24.6987 123.726 24.7041 123.739 24.7131 123.75C24.722 123.76 24.734 123.767 24.7473 123.77C24.7606 123.773 24.7746 123.772 24.7871 123.767C24.7997 123.761 24.8102 123.752 24.8172 123.74C25.2934 122.532 25.6824 121.292 25.981 120.028C26.3122 118.805 26.6158 117.572 26.9332 116.348C27.0666 115.838 27.1908 115.318 27.315 114.803L27.5082 114.439C27.6922 114.108 27.8578 113.763 28.0188 113.423C28.35 112.71 28.6536 111.992 28.9388 111.265C28.9618 111.219 28.925 111.201 28.9112 111.219Z" fill="#263238"/>
<path d="M32.4624 85.7306C31.6344 88.1073 30.7819 90.4763 29.9048 92.8376C29.017 95.1882 28.166 97.5572 27.246 99.894L27.1126 99.434L31.1652 102.447L31.501 102.695L31.2802 103.059C30.2176 104.798 29.1274 106.513 28.0602 108.234L28.097 107.838C29.4218 111.573 30.788 115.295 32.0622 119.053C33.3364 122.811 34.6382 126.56 35.8572 130.337C34.3668 126.657 32.9209 122.966 31.5194 119.265C30.0842 115.585 28.7594 111.845 27.3518 108.128L27.2782 107.921L27.3932 107.732C28.4604 106.003 29.523 104.264 30.6132 102.548L30.7282 103.16L26.7216 100.073L26.4732 99.8802L26.5882 99.5904C27.5082 97.2582 28.5202 94.9582 29.4816 92.6444C30.443 90.3306 31.4412 88.0168 32.4624 85.7306Z" fill="#A6A6A6"/>
<path d="M30.2958 89.82C29.9784 85.0728 33.8562 83.38 37.412 82.92C41.6302 82.3496 44.4362 82.7084 46.4556 86.7978C48.5808 91.108 49.6756 96.1128 50.522 100.832C50.6784 101.711 52.0538 101.495 51.902 100.612C50.9452 95.1744 49.5744 85.036 44.1648 82.0736C39.1876 79.3504 28.3914 82.0138 28.925 90.0638C28.9848 90.9562 30.3556 90.7308 30.305 89.843L30.2958 89.82Z" fill="#455A64"/>
<path d="M54.8 102.792C54.9003 103.415 54.8135 104.055 54.5505 104.629C54.2875 105.203 53.8601 105.686 53.3224 106.017C52.7848 106.348 52.161 106.513 51.5299 106.489C50.8989 106.466 50.2889 106.256 49.7772 105.886C49.2656 105.516 48.8751 105.002 48.6554 104.41C48.4356 103.818 48.3963 103.174 48.5425 102.56C48.6887 101.946 49.0138 101.389 49.4767 100.959C49.9396 100.53 50.5195 100.247 51.143 100.147C51.9785 100.014 52.8325 100.218 53.5179 100.714C54.2034 101.21 54.6644 101.957 54.8 102.792Z" fill="#263238"/>
<path d="M53.5212 102.994C53.5812 103.37 53.5283 103.755 53.3694 104.101C53.2105 104.446 52.9526 104.737 52.6284 104.936C52.3042 105.135 51.9282 105.234 51.5481 105.219C51.1679 105.204 50.8007 105.077 50.4928 104.853C50.185 104.63 49.9503 104.32 49.8186 103.963C49.6869 103.606 49.664 103.218 49.7528 102.849C49.8416 102.479 50.0381 102.143 50.3175 101.885C50.5969 101.627 50.9466 101.458 51.3224 101.398C51.8256 101.319 52.3398 101.442 52.752 101.741C53.1643 102.041 53.4409 102.491 53.5212 102.994Z" fill="#FCF4F3"/>
<path d="M35.0936 104.715C38.585 118.055 38.0376 121.325 36.9336 122.857C36.0962 123.929 35.0226 124.794 33.7964 125.383L33.3962 124.499L33.5986 124.959L33.3962 124.499C34.469 123.978 35.4119 123.224 36.1562 122.291C36.9612 121.183 37.6282 118.179 34.1736 104.963L35.0936 104.715Z" fill="#C7C7C7"/>
<path d="M31.7055 125.358L32.2097 126.272C32.3458 126.519 32.6564 126.609 32.9034 126.473L34.9457 125.347C35.1927 125.211 35.2825 124.9 35.1463 124.653L34.6421 123.739C34.506 123.492 34.1954 123.402 33.9485 123.538L31.9061 124.664C31.6592 124.8 31.5694 125.111 31.7055 125.358Z" fill="#263238"/>
<path d="M26.3858 105.032C23.7178 115.088 23.0692 120.589 24.3388 122.356C25.0787 123.295 26.0225 124.053 27.0988 124.573L26.694 125.456C25.4715 124.861 24.4015 123.994 23.566 122.922C22.0526 120.819 22.6 115.562 25.4612 104.784L26.3858 105.032Z" fill="#C7C7C7"/>
<path d="M25.3141 124.729L25.8192 123.821C25.885 123.702 25.9951 123.615 26.1253 123.578C26.2556 123.541 26.3952 123.557 26.5136 123.623L28.552 124.756C28.6714 124.822 28.7596 124.933 28.7971 125.065C28.8346 125.196 28.8183 125.337 28.752 125.456L28.2468 126.365C28.2143 126.424 28.1705 126.475 28.1179 126.517C28.0654 126.559 28.0052 126.59 27.9407 126.608C27.8762 126.626 27.8088 126.632 27.7421 126.624C27.6755 126.617 27.6111 126.596 27.5525 126.563L25.5141 125.43C25.4545 125.398 25.402 125.354 25.3596 125.301C25.3172 125.248 25.2857 125.187 25.2671 125.122C25.2485 125.056 25.2431 124.988 25.2511 124.921C25.2592 124.853 25.2806 124.788 25.3141 124.729Z" fill="#263238"/>
<path d="M25.1162 104.365C25.5602 102.14 26.1409 99.9451 26.855 97.7918C27.2788 96.839 27.9508 96.0177 28.8008 95.4136C28.994 95.4136 28.9158 93.6978 28.8008 92.3132C28.7134 91.0942 28.5892 89.6728 28.879 89.2818C29.0483 89.0996 29.2821 88.9908 29.5306 88.9788C29.779 88.9667 30.0223 89.0524 30.2084 89.2174C30.5442 89.5762 30.558 91.0022 30.5994 92.2258C30.6408 93.6058 30.7328 95.3078 30.926 95.3032C31.7816 95.861 32.4901 96.6168 32.9914 97.5066C33.9243 99.6344 34.6932 101.83 35.2914 104.075C35.5996 105.506 35.1304 105.681 34.721 105.823C34.1414 106.021 33.7734 105.621 33.341 104.039C32.6234 101.532 31.7218 97.3088 29.9784 97.318C28.2442 97.4882 27.5358 101.959 26.9746 104.448C26.6204 106.007 26.2938 106.159 25.6958 106.021C25.268 105.92 24.8356 105.745 25.1162 104.365Z" fill="#263238"/>
<path d="M66.2632 38.5898L63.3008 106.73L117.687 99.5582L120.654 31.4184L66.2632 38.5898Z" fill="#37474F"/>
<path opacity="0.2" d="M72.4732 70.316C72.8734 76.8986 75.2332 80.5142 75.9922 82.621C76.7512 84.7278 80.1322 89.9258 80.1322 90.1926C80.1322 90.4594 76.949 104.913 76.949 104.913L101.053 101.734C101.053 101.734 100.63 94.1256 100.809 93.3988C100.989 92.672 106.173 82.1334 107.921 77.5564C109.669 72.9794 112.82 58.885 112.608 53.871C112.397 48.857 107.548 49.7586 106.568 53.6042C105.777 56.6494 102.64 67.579 102.29 67.4962C101.941 67.4134 104.13 51.8056 103.417 46.1338C102.704 40.462 97.8008 42.4952 97.2626 46.9434C96.7244 51.3916 95.7676 66.1438 95.556 66.107C95.3444 66.0702 94.4566 49.6068 93.601 45.1356C92.7454 40.6644 87.2392 41.6488 87.0506 46.833C86.862 52.0172 88.1592 67.5698 87.9476 67.4226C87.736 67.2754 85.8316 56.9116 84.0376 51.5526C82.2436 46.1936 76.9858 49.0364 77.708 54.4782C78.4302 59.92 83.0072 75.9372 82.768 75.8866C82.5288 75.836 80.0632 71.2866 79.0466 67.0178C78.03 62.749 72.0684 63.7288 72.4732 70.316Z" fill="white"/>
<path d="M84.9944 82.7498C85.1094 81.8942 84.1894 82.0782 83.6558 81.4894C83.1222 80.9006 81.4754 79.401 81.4248 78.8674C81.3742 78.3338 81.4248 77.5656 80.7118 77.308C80.2104 77.1194 79.6584 77.6668 79.2904 77.9428C78.9224 78.2188 78.4946 78.8628 78.6372 79.3596C78.8626 80.1324 79.7044 80.0726 79.778 80.1922C79.8516 80.3118 81.9492 82.5704 82.1654 82.9154C82.3816 83.2604 82.0688 84.7554 83.0624 84.7968C83.7386 84.8198 83.9502 84.5208 84.3182 84.1482C84.5205 83.9737 84.6848 83.7596 84.8011 83.519C84.9174 83.2785 84.9832 83.0167 84.9944 82.7498Z" fill="white"/>
<path d="M88.9872 77.7864C89.4058 76.986 88.5272 76.7974 88.311 76.0016C88.0488 75.123 87.2162 73.0668 87.391 72.5194C87.5658 71.972 87.851 71.2222 87.3588 70.6794C87 70.2976 86.3238 70.6196 85.9006 70.7484C85.6363 70.8306 85.3975 70.979 85.2067 71.1794C85.0159 71.3799 84.8795 71.6258 84.8104 71.8938C84.7138 72.7448 85.459 73.0208 85.482 73.168C85.505 73.3152 86.4572 76.388 86.5124 76.8158C86.5676 77.2436 85.7396 78.6098 86.5814 79.0376C87.1518 79.332 87.4462 79.1204 87.9016 78.895C88.1467 78.7909 88.3688 78.6394 88.5551 78.4491C88.7414 78.2589 88.8883 78.0336 88.9872 77.7864Z" fill="white"/>
<path d="M93.1962 76.9032C93.8126 76.1442 93.003 75.7164 92.9662 74.7872C92.9248 73.7614 92.612 71.305 92.9064 70.753C93.2008 70.201 93.6976 69.4696 93.3342 68.7612C93.072 68.246 92.3176 68.4162 91.8668 68.4438C91.5735 68.4677 91.2916 68.5682 91.0494 68.7353C90.8072 68.9024 90.6132 69.1303 90.4868 69.396C90.174 70.316 90.8502 70.776 90.8318 70.96C90.8134 71.144 90.9974 74.7182 90.9468 75.1966C90.8962 75.675 89.7232 76.94 90.4546 77.6254C90.9514 78.0854 91.2964 77.9428 91.807 77.8232C92.0894 77.7737 92.3585 77.6664 92.5976 77.5081C92.8366 77.3498 93.0404 77.1439 93.1962 76.9032Z" fill="white"/>
<path d="M82.2298 63.3608C82.17 64.2072 82.9336 64.451 82.9566 64.5936C82.9566 64.6258 83.0256 64.8098 83.1176 65.0766L85.4498 65.9966C85.1094 65.141 84.7644 64.2072 84.8518 63.8576C84.9852 63.3056 85.2704 62.5512 84.7414 62.0452C84.3642 61.6818 83.6972 62.0452 83.2786 62.1786C83.0182 62.2712 82.7855 62.4281 82.6022 62.6348C82.4188 62.8415 82.2907 63.0913 82.2298 63.3608Z" fill="white"/>
<path d="M84.355 70.6886C84.9944 70.8404 85.2474 70.5828 85.666 70.2746C85.8969 70.1324 86.0971 69.9458 86.2551 69.7254C86.413 69.5051 86.5255 69.2555 86.586 68.9912C86.8528 68.1448 85.942 68.1448 85.5464 67.4456C85.3854 67.1604 85.1186 66.7418 84.8472 66.3002L82.3402 65.8034C82.8002 66.6176 83.757 68.292 83.8628 68.5956C83.9916 68.9912 83.4212 70.454 84.355 70.6886Z" fill="white"/>
<path d="M93.0812 66.9672C93.647 66.1714 92.7914 65.8172 92.681 64.9064C92.5614 63.9036 92.0508 61.5162 92.2992 60.9458C92.5476 60.3754 92.9984 59.621 92.5752 58.954C92.2716 58.471 91.5218 58.701 91.0664 58.7654C90.775 58.813 90.5008 58.9349 90.2704 59.1194C90.0399 59.304 89.8609 59.5449 89.7508 59.8188C89.5116 60.7388 90.2108 61.162 90.2108 61.323C90.2108 61.484 90.6708 65.003 90.6708 65.463C90.6708 65.923 89.576 67.28 90.3672 67.8964C90.91 68.315 91.2458 68.1356 91.7472 67.9746C92.0261 67.9056 92.2881 67.7807 92.5174 67.6076C92.7467 67.4344 92.9385 67.2166 93.0812 66.9672Z" fill="white"/>
<path d="M84.1756 60.4996C84.608 59.7038 83.7524 59.5014 83.5316 58.6964C83.2832 57.8086 82.6116 56.4792 82.7588 55.9364C82.906 55.3936 83.2464 54.6438 82.7588 54.0964C82.4046 53.7054 81.7238 54.0136 81.3052 54.1378C81.0391 54.2144 80.7973 54.3584 80.6031 54.5559C80.4089 54.7533 80.2689 54.9975 80.1966 55.2648C80.0862 56.1204 80.8222 56.4102 80.8406 56.5574C80.859 56.7046 81.6548 59.0598 81.7008 59.4876C81.7468 59.9154 80.9004 61.277 81.733 61.7186C82.2988 62.0222 82.5932 61.8152 83.0486 61.599C83.3012 61.5017 83.5313 61.3541 83.7251 61.1651C83.9188 60.9761 84.0721 60.7497 84.1756 60.4996Z" fill="white"/>
<path d="M92.2716 57.4268C92.842 56.6356 91.9956 56.2676 91.8944 55.3568C91.7794 54.3494 91.2964 51.9574 91.554 51.387C91.8116 50.8166 92.2624 50.0668 91.8484 49.3952C91.5448 48.9076 90.795 49.1284 90.3396 49.1928C90.0484 49.237 89.7737 49.3561 89.5423 49.5383C89.3108 49.7205 89.1307 49.9597 89.0194 50.2324C88.7664 51.1524 89.4794 51.5802 89.4794 51.7458C89.4794 51.9114 89.9026 55.4258 89.8842 55.9088C89.8658 56.3918 88.7756 57.7166 89.5576 58.3422C90.0958 58.77 90.4316 58.5906 90.9376 58.4342C91.2172 58.367 91.48 58.2428 91.7095 58.0695C91.9391 57.8961 92.1304 57.6774 92.2716 57.4268Z" fill="white"/>
<path d="M97.8376 78.1084C98.5874 77.5058 97.9526 76.8618 98.1458 75.9188C98.3574 74.8838 98.6702 72.3354 99.0658 71.857C99.4614 71.3786 100.101 70.776 99.9444 69.971C99.8294 69.3868 99.0934 69.3592 98.6702 69.2718C98.3908 69.2238 98.1035 69.2542 97.8403 69.3598C97.5772 69.4654 97.3485 69.642 97.1798 69.8698C96.6738 70.6932 97.1798 71.3694 97.1154 71.5304C97.051 71.6914 96.3472 75.3438 96.1954 75.8084C96.0436 76.273 94.6498 77.2436 95.1512 78.1084C95.4962 78.711 95.8458 78.6466 96.3472 78.6558C96.6206 78.68 96.896 78.6434 97.1536 78.5488C97.4113 78.4542 97.6448 78.3038 97.8376 78.1084Z" fill="white"/>
<path d="M100.23 68.2828C100.897 67.579 100.147 67.073 100.193 66.1346C100.243 65.1042 100.151 62.611 100.487 62.082C100.823 61.553 101.37 60.8722 101.081 60.127C100.869 59.5842 100.119 59.667 99.6776 59.667C99.3883 59.6655 99.1039 59.7414 98.8539 59.8871C98.604 60.0327 98.3976 60.2426 98.2562 60.495C97.8744 61.369 98.4862 61.9302 98.4586 62.0958C98.431 62.2614 98.2884 65.877 98.1964 66.3554C98.1044 66.8338 96.8578 67.9884 97.5064 68.7474C97.9664 69.2672 98.2976 69.143 98.8036 69.0694C99.0834 69.0464 99.3551 68.9645 99.6009 68.8289C99.8467 68.6933 100.061 68.5072 100.23 68.2828Z" fill="white"/>
<path d="M101.081 58.4112C101.729 57.6844 100.952 57.2106 100.961 56.2814C100.961 55.2556 100.851 53.273 101.168 52.7348C101.485 52.1966 102.005 51.4928 101.688 50.766C101.453 50.2416 100.703 50.3704 100.257 50.375C99.9702 50.3871 99.6915 50.4748 99.4492 50.629C99.207 50.7833 99.0096 50.9987 98.8772 51.2536C98.5276 52.1368 99.1624 52.6704 99.1394 52.8314C99.1164 52.9924 99.052 56.1112 98.9738 56.585C98.8956 57.0588 97.6904 58.264 98.3758 58.9908C98.8358 59.4876 99.1854 59.3496 99.6914 59.2576C99.9689 59.2203 100.236 59.1258 100.475 58.9801C100.714 58.8344 100.92 58.6407 101.081 58.4112Z" fill="white"/>
<path d="M101.642 80.0312C102.405 79.6908 102.047 78.9456 102.438 78.1498C102.87 77.2712 103.482 75.3622 103.933 75.0402C104.383 74.7182 105.041 74.341 105.115 73.5774C105.17 73.0208 104.581 72.8 104.259 72.6114C104.046 72.4927 103.802 72.4423 103.559 72.467C103.316 72.4917 103.087 72.5902 102.902 72.7494C102.286 73.3566 102.52 74.0972 102.442 74.226C102.364 74.3548 101.145 77.1516 100.897 77.5288C100.648 77.906 99.2866 78.4074 99.4706 79.332C99.5994 79.9622 99.903 79.999 100.303 80.1416C100.519 80.233 100.753 80.2707 100.986 80.2515C101.219 80.2322 101.444 80.1566 101.642 80.0312Z" fill="white"/>
<path d="M105.915 71.6914C106.536 71.1992 106.016 70.6702 106.177 69.8928C106.357 69.0418 106.522 67.5652 106.858 67.1742C107.194 66.7832 107.714 66.2864 107.59 65.624C107.498 65.141 106.895 65.118 106.545 65.0444C106.316 65.0035 106.079 65.0275 105.862 65.1136C105.645 65.1997 105.456 65.3446 105.317 65.532C104.899 66.2082 105.317 66.7648 105.257 66.912C105.198 67.0592 104.71 69.4282 104.577 69.81C104.443 70.1918 103.302 70.9876 103.712 71.7144C103.988 72.2066 104.278 72.1744 104.687 72.1744C104.915 72.1919 105.144 72.1575 105.357 72.0738C105.569 71.9902 105.76 71.8594 105.915 71.6914Z" fill="white"/>
<path d="M108.036 64.152C108.657 63.6644 108.142 63.1308 108.307 62.3534C108.496 61.5024 108.74 59.8234 109.075 59.4324C109.411 59.0414 109.94 58.5538 109.816 57.8868C109.729 57.4038 109.126 57.3762 108.781 57.298C108.554 57.2519 108.318 57.2706 108.101 57.3519C107.884 57.4332 107.694 57.5739 107.553 57.758C107.13 58.4296 107.53 58.9908 107.484 59.138C107.438 59.2852 106.849 61.852 106.711 62.2384C106.573 62.6248 105.428 63.4022 105.832 64.1336C106.108 64.6304 106.398 64.5936 106.808 64.5936C107.032 64.6156 107.259 64.5874 107.471 64.5111C107.684 64.4347 107.877 64.312 108.036 64.152Z" fill="white"/>
<path d="M79.7826 76.3466C80.1322 75.5186 79.2444 75.4266 78.9316 74.663C78.582 73.8304 77.8276 72.7586 77.9334 72.2066C78.0392 71.6546 78.2876 70.891 77.731 70.4218C77.3308 70.0814 76.6776 70.4586 76.2636 70.6288C76.0072 70.7328 75.7813 70.9 75.6068 71.1147C75.4323 71.3294 75.3148 71.5848 75.2654 71.857C75.2654 72.7034 76.029 72.9012 76.0612 73.0392C76.0934 73.1772 77.0732 75.238 77.1698 75.652C77.2664 76.066 76.558 77.492 77.4458 77.8186C78.053 78.0486 78.329 77.8186 78.7706 77.5472C79.0108 77.4246 79.224 77.2552 79.3978 77.049C79.5716 76.8429 79.7024 76.604 79.7826 76.3466Z" fill="white"/>
<path d="M97.58 85.7858C98.845 85.6616 100.179 82.6762 99.5902 81.3652C98.8358 79.6678 94.82 81.2686 94.1438 82.9246C93.624 84.2034 94.8246 83.3846 95.855 84.415C96.6186 85.1694 96.9866 85.8502 97.58 85.7858Z" fill="white"/>
<path d="M95.234 79.585C94.59 78.5178 90.634 78.872 88.794 79.7322C87.7176 80.2336 86.034 81.977 86.034 82.7636C86.034 83.5502 87.0368 84.8934 87.874 84.6036C89.1179 84.2431 90.3862 83.9725 91.669 83.794C93.2836 83.656 95.7722 80.4866 95.234 79.585Z" fill="white"/>
<path d="M109.701 56.8196C109.811 56.7649 109.908 56.6879 109.987 56.5935C110.066 56.4992 110.124 56.3895 110.158 56.2715C110.193 56.1534 110.202 56.0296 110.186 55.9078C110.169 55.786 110.128 55.6688 110.064 55.5638C109.917 55.3338 110.446 53.6732 109.844 53.5444C109.241 53.4156 109.039 54.9244 108.661 55.2832C108.284 55.642 107.81 56.3642 108.372 56.723C108.572 56.837 108.795 56.9048 109.025 56.9215C109.255 56.9382 109.486 56.9034 109.701 56.8196Z" fill="white"/>
<path d="M101.154 49.5608C101.265 49.4787 101.356 49.3735 101.422 49.2524C101.488 49.1314 101.527 48.9975 101.535 48.8599C101.544 48.7224 101.523 48.5847 101.473 48.4563C101.423 48.3278 101.346 48.2119 101.246 48.1164C101.012 47.914 101.186 45.9958 100.45 46.028C99.7144 46.0602 99.88 47.7116 99.5304 48.213C99.1808 48.7144 98.8312 49.593 99.5764 49.8276C99.8437 49.893 100.122 49.903 100.393 49.8572C100.664 49.8113 100.923 49.7104 101.154 49.5608Z" fill="white"/>
<path d="M91.0894 48.2636C91.2029 48.1839 91.2969 48.0795 91.3643 47.9583C91.4317 47.8371 91.4709 47.7022 91.4789 47.5637C91.4868 47.4253 91.4634 47.2868 91.4103 47.1586C91.3572 47.0305 91.2758 46.916 91.1722 46.8238C90.9376 46.626 91.0986 44.7078 90.358 44.7446C89.6174 44.7814 89.8014 46.4282 89.4702 46.9342C89.139 47.4402 88.7802 48.3142 89.5254 48.5442C89.7914 48.6067 90.0675 48.6141 90.3364 48.5658C90.6054 48.5175 90.8617 48.4147 91.0894 48.2636Z" fill="white"/>
<path d="M81.9952 53.4018C82.0964 53.3106 82.1754 53.1974 82.2261 53.0709C82.2768 52.9444 82.2978 52.8079 82.2876 52.6721C82.2774 52.5362 82.2362 52.4044 82.1672 52.2869C82.0981 52.1694 82.0031 52.0693 81.8894 51.9942C81.6272 51.8332 81.5352 49.9564 80.7946 50.0944C80.054 50.2324 80.4496 51.801 80.1782 52.3392C79.9068 52.8774 79.6584 53.7836 80.445 53.8894C81.0055 53.9346 81.5615 53.7597 81.9952 53.4018Z" fill="white"/>
<path d="M76.9122 69.58C77.0108 69.4877 77.0878 69.3749 77.1379 69.2495C77.188 69.1241 77.2098 68.9893 77.2019 68.8545C77.194 68.7197 77.1565 68.5883 77.0922 68.4696C77.0278 68.351 76.9381 68.2479 76.8294 68.1678C76.5672 68.0022 76.5074 66.1162 75.7668 66.245C75.0262 66.3738 75.3942 67.9516 75.1136 68.4852C74.833 69.0188 74.5754 69.925 75.3574 70.0446C75.9167 70.1015 76.4758 69.9344 76.9122 69.58Z" fill="white"/>
<path d="M87.5014 86.0894C87.5888 85.6294 85.8362 84.0562 85.3164 84.1666C84.7966 84.277 83.711 86.0848 83.7432 86.7334C83.7754 87.382 84.9392 88.6194 85.5418 88.2468C86.1444 87.8742 87.3404 86.9358 87.5014 86.0894Z" fill="white"/>
<path d="M83.1268 104.117L85.2566 103.836C85.9466 99.4892 86.7838 94.5442 87.184 92.1982C87.276 91.6646 87.345 91.2782 87.3864 91.039C87.6118 89.7188 86.8482 89.0656 86.1674 89.0472C85.9791 89.0354 85.792 89.0844 85.6338 89.1871C85.4756 89.2899 85.3546 89.4408 85.2888 89.6176C84.9944 90.418 83.8858 98.2978 83.1268 104.117Z" fill="white"/>
<path d="M87.7682 92.12C88.3156 92.7824 88.8538 93.2608 88.8354 93.4494C88.817 93.638 88.61 97.962 88.3524 103.427L93.1456 102.792C93.4446 97.732 93.7942 93.6702 94.1254 93.04C95.0454 91.3196 98.7254 88.6746 96.8118 86.623C94.8982 84.5714 92.8052 85.1418 91.4022 85.243C89.9992 85.3442 89.9624 85.0912 87.5244 87.6948C87.1663 88.057 86.9011 88.5005 86.7516 88.9874C86.402 90.1834 87.092 91.2966 87.7682 92.12Z" fill="white"/>
<path d="M120.12 56.1158C122.829 59.4784 128.487 63.1124 129.601 66.1208C129.901 66.8525 129.958 67.6616 129.762 68.428C129.566 69.1944 129.129 69.8774 128.515 70.3758C128.515 70.3758 131.974 71.1808 132.535 74.0788C132.821 75.5738 130.695 77.3402 130.695 77.3402C130.695 77.3402 133.455 78.1084 133.777 80.7166C134.049 82.7912 131.873 84.254 131.873 84.254C131.873 84.254 134.173 86.2182 133.759 88.4216C132.94 92.8928 115.442 97.0696 111.219 91.269C109.246 88.5688 113.574 87.7776 113.574 87.7776C113.574 87.7776 107.074 87.4096 106.122 83.8216C105.17 80.2336 110.856 79.5528 110.856 79.5528C110.856 79.5528 104.558 79.1388 103.956 75.3254C103.316 71.351 109.121 71.6454 109.121 71.6454C109.121 71.6454 104.6 69.9388 104.802 66.9074C105.129 61.9072 113.896 65.9874 117.521 64.175L118.128 57.3256L120.12 56.1158Z" fill="#D3766A"/>
<path d="M124.945 60.7894C122.645 57.3808 126.192 51.6538 124.485 48.0796C122.185 43.245 117.622 49.616 118.11 57.321L119.545 63.2412L124.945 60.7894Z" fill="#D3766A"/>
<path d="M131.56 84.5346C131.572 84.5297 131.585 84.5296 131.596 84.5344C131.608 84.5391 131.617 84.5483 131.622 84.5599C131.627 84.5715 131.627 84.5845 131.623 84.5962C131.618 84.6078 131.609 84.6171 131.597 84.622C126.178 87.382 119.37 88.785 113.317 87.842C113.119 87.8098 113.082 87.474 113.317 87.4648C119.734 87.2486 125.415 86.5356 131.56 84.5346Z" fill="#263238"/>
<path d="M130.783 77.3586C130.852 77.3586 130.889 77.446 130.82 77.4782C125.221 80.3118 117.512 81.6642 110.662 79.7782C110.428 79.7138 110.281 79.4194 110.557 79.4746C115.207 80.3762 125.263 79.1848 130.783 77.3586Z" fill="#263238"/>
<path d="M108.62 71.3464C115.258 72.915 121.735 72.1974 128.276 70.5046C128.363 70.5046 128.386 70.6058 128.317 70.6426C125.341 72.3446 121.058 72.9886 117.682 73.2094C114.553 73.4699 111.409 72.9069 108.565 71.5764C108.464 71.5258 108.491 71.3142 108.62 71.3464Z" fill="#263238"/>
<path d="M34.0172 85.68C34.3714 86.6 37.849 92.6766 42.196 92.6766C44.956 92.6766 44.266 83.3064 44.266 83.3064L44.312 82.7222L44.9422 74.548L34.7808 69.902L33.3272 69.304C33.3272 69.304 33.2996 71.5534 33.295 74.364V74.7642C33.295 74.9206 33.295 75.0724 33.295 75.2242C33.295 75.6428 33.295 76.0706 33.295 76.4938C33.295 76.8204 33.295 77.1332 33.295 77.4736C33.295 77.814 33.295 78.1452 33.318 78.4856C33.456 81.8344 33.87 85.2752 34.0172 85.68Z" fill="#D3766A"/>
<path d="M33.295 74.3502C34.4141 76.4599 35.9794 78.3006 37.882 79.744C39.7846 81.1874 41.9788 82.199 44.312 82.7084L44.9422 74.5342L34.7808 69.902L33.3272 69.304C33.3272 69.304 33.2996 71.5534 33.295 74.3502Z" fill="#263238"/>
<path d="M54.731 60.6744C57.767 74.7366 49.671 78.1544 46.6488 78.7938C43.8888 79.3872 34.445 81.0478 29.9738 67.372C25.5026 53.6962 31.0778 47.8404 37.3062 46.1522C43.5346 44.464 51.695 46.6076 54.731 60.6744Z" fill="#D3766A"/>
<path d="M29.3758 65.3894C30.9536 65.2284 34.8958 60.7066 34.6934 53.0614C34.6934 53.0614 34.3944 59.9384 33.9206 60.9642C33.4468 61.99 36.124 58.4204 36.0504 52.2518C36.0504 52.2518 39.5648 54.5518 42.4904 55.2648C45.416 55.9778 47.2146 55.8536 47.4124 55.6374C47.6102 55.4212 43.2724 54.2574 42.058 52.9602C42.058 52.9602 49.947 56.2354 53.5258 56.355C53.9398 56.355 54.0778 47.8634 48.4106 44.4962C42.7434 41.129 34.1506 45.3794 31.9196 47.7484C31.9196 47.7484 29.1596 48.259 26.3536 52.4634C23.5476 56.6678 27.66 65.5642 29.3758 65.3894Z" fill="#263238"/>
<path d="M32.26 66.2588C32.26 66.2588 28.58 62.197 26.6986 63.5632C24.8172 64.9294 27.9774 71.0934 30.4614 71.6776C30.7751 71.774 31.1051 71.806 31.4316 71.7718C31.758 71.7376 32.0742 71.6378 32.3611 71.4785C32.648 71.3191 32.8999 71.1034 33.1014 70.8444C33.303 70.5854 33.4502 70.2883 33.5342 69.971L32.26 66.2588Z" fill="#D3766A"/>
<path d="M27.6232 65.3112C27.5864 65.3112 27.5864 65.3664 27.6232 65.3756C29.3758 65.8356 30.443 67.2708 31.2618 68.7934C30.6868 68.2414 29.9738 67.9884 29.2194 68.6784C29.1826 68.7152 29.2194 68.7796 29.2792 68.7658C29.5592 68.6348 29.8729 68.5941 30.177 68.6493C30.4811 68.7046 30.7606 68.853 30.9766 69.074C31.3381 69.4455 31.6574 69.8559 31.9288 70.2976C32.0254 70.4356 32.283 70.3252 32.2048 70.1596C32.2048 70.1596 32.2048 70.1596 32.2048 70.1228C31.9564 67.993 29.9278 65.233 27.6232 65.3112Z" fill="#263238"/>
<path d="M51.1614 59.3956C50.821 59.3956 50.5082 59.368 50.1678 59.3496C49.8172 59.3823 49.4657 59.2965 49.1696 59.1058C49.0869 59.0288 49.0321 58.9264 49.0138 58.8149C48.9954 58.7033 49.0147 58.5889 49.0684 58.4894C49.2051 58.31 49.3871 58.1703 49.5957 58.0846C49.8043 57.9989 50.0319 57.9704 50.2552 58.0018C50.7175 57.9955 51.1661 58.1592 51.5156 58.4618C51.5903 58.5364 51.6418 58.6309 51.664 58.7341C51.6862 58.8373 51.6781 58.9446 51.6406 59.0433C51.6032 59.142 51.5381 59.2277 51.4531 59.2902C51.368 59.3527 51.2667 59.3893 51.1614 59.3956Z" fill="#263238"/>
<path d="M41.115 59.3818C41.4278 59.2785 41.7349 59.1587 42.035 59.023C42.379 58.9422 42.6874 58.7517 42.9136 58.4802C42.9658 58.3804 42.9842 58.2663 42.9659 58.1551C42.9477 58.0439 42.8938 57.9417 42.8124 57.8638C42.6261 57.7355 42.4089 57.6593 42.1832 57.6432C41.9576 57.627 41.7317 57.6714 41.529 57.7718C41.0872 57.9077 40.7128 58.205 40.4802 58.6044C40.4315 58.6992 40.4114 58.8061 40.4226 58.9121C40.4337 59.018 40.4756 59.1185 40.543 59.201C40.6104 59.2836 40.7004 59.3446 40.802 59.3767C40.9036 59.4089 41.0124 59.4106 41.115 59.3818Z" fill="#263238"/>
<path d="M44.036 62.956C44.036 62.9192 43.9716 63.0158 43.9762 63.0526C44.1878 64.0094 44.266 65.141 43.4564 65.6194C43.4288 65.6194 43.4564 65.6838 43.4564 65.6746C44.5052 65.3296 44.3856 63.83 44.036 62.956Z" fill="#263238"/>
<path d="M42.9918 62.1096C41.4232 62.2798 41.8786 65.4032 43.3322 65.2468C44.7858 65.0904 44.3074 61.967 42.9918 62.1096Z" fill="#263238"/>
<path d="M42.403 62.3626C42.1546 62.5788 41.943 62.933 41.6072 63.0112C41.2714 63.0894 40.8988 62.818 40.6044 62.5512C40.5722 62.5236 40.5492 62.5512 40.5538 62.5926C40.632 63.1952 40.954 63.7748 41.6072 63.7702C42.2604 63.7656 42.5502 63.1768 42.61 62.5512C42.6238 62.427 42.4996 62.2752 42.403 62.3626Z" fill="#263238"/>
<path d="M49.5606 61.7278C49.5606 61.691 49.6434 61.7646 49.6434 61.806C49.7492 62.7766 50.0298 63.876 50.9498 64.0784C50.9774 64.0784 50.982 64.1336 50.9498 64.1336C49.8596 64.129 49.5008 62.68 49.5606 61.7278Z" fill="#263238"/>
<path d="M50.2874 60.5962C51.8284 60.265 52.3804 63.3562 50.9498 63.6828C49.5192 64.0094 48.9902 60.8768 50.2874 60.5962Z" fill="#263238"/>
<path d="M50.9682 60.6882C51.2442 60.8078 51.5432 61.0654 51.8376 61.0332C52.132 61.001 52.3758 60.6146 52.5368 60.2512C52.5368 60.2144 52.5828 60.2512 52.5874 60.2788C52.7116 60.8676 52.6242 61.5208 52.0722 61.737C51.5202 61.9532 51.097 61.4932 50.8532 60.9274C50.8072 60.84 50.8578 60.6376 50.9682 60.6882Z" fill="#263238"/>
<path d="M45.1124 70.4126C45.37 70.615 45.6322 70.9048 45.991 70.9002C46.3523 70.8572 46.7004 70.7381 47.0122 70.5506C47.0152 70.5476 47.0188 70.5452 47.0227 70.5435C47.0267 70.5419 47.0309 70.5411 47.0352 70.5411C47.0395 70.5411 47.0437 70.5419 47.0476 70.5435C47.0516 70.5452 47.0552 70.5476 47.0582 70.5506C47.0612 70.5536 47.0636 70.5572 47.0652 70.5611C47.0669 70.5651 47.0677 70.5693 47.0677 70.5736C47.0677 70.5779 47.0669 70.5821 47.0652 70.586C47.0636 70.59 47.0612 70.5936 47.0582 70.5966C46.9382 70.8018 46.765 70.9709 46.557 71.0858C46.3489 71.2008 46.1136 71.2574 45.876 71.2498C45.6721 71.218 45.4823 71.1262 45.3307 70.9861C45.1792 70.846 45.0727 70.664 45.025 70.4632C45.002 70.408 45.0756 70.3804 45.1124 70.4126Z" fill="#263238"/>
<path d="M48.6038 66.2818C48.6038 66.2818 49.0638 67.9194 49.1742 68.5818C49.1742 68.6462 46.8742 68.5312 45.0664 69.005C44.9836 69.028 44.887 68.8854 45.0664 68.775C46.1934 68.1356 48.5624 68.0896 48.5624 68.0896C48.5624 67.9792 47.7482 65.693 47.854 65.67C48.3899 65.6324 48.9285 65.668 49.4548 65.7758C48.6544 62.8088 47.3802 59.9936 46.6258 57.0358C46.6183 57.0136 46.6196 56.9894 46.6294 56.9681C46.6392 56.9468 46.6567 56.9301 46.6785 56.9213C46.7002 56.9125 46.7244 56.9123 46.7463 56.9207C46.7681 56.9292 46.7859 56.9457 46.796 56.9668C48.3416 59.8188 49.3398 63.2136 50.246 66.2588C50.3794 66.6452 48.8936 66.36 48.6038 66.2818Z" fill="#263238"/>
<path d="M44.9422 89.2266C44.7628 89.0472 45.1998 85.4776 45.0296 85.335C44.5696 84.9486 43.4656 86.048 41.506 85.979C38.0974 85.864 34.4312 82.6026 33.6446 82.8694C32.858 83.1362 32.927 87.0692 32.7246 87.1842C32.5222 87.2992 39.8408 93.8174 42.1638 93.1964C44.4868 92.5754 44.9422 89.2266 44.9422 89.2266Z" fill="#FF7C65"/>
<path d="M43.76 88.9C43.8382 88.0674 43.9808 87.244 44.0222 86.4068C44.0261 86.3921 44.0348 86.3791 44.0468 86.3698C44.0589 86.3605 44.0737 86.3555 44.0889 86.3555C44.1041 86.3555 44.1189 86.3605 44.131 86.3698C44.143 86.3791 44.1517 86.3921 44.1556 86.4068C44.2085 87.2554 44.2085 88.1066 44.1556 88.9552C44.09 89.7843 43.9264 90.6027 43.668 91.3932C43.6648 91.4035 43.6584 91.4125 43.6497 91.4189C43.641 91.4253 43.6305 91.4287 43.6197 91.4287C43.6089 91.4287 43.5984 91.4253 43.5897 91.4189C43.581 91.4125 43.5746 91.4035 43.5714 91.3932C43.5944 90.533 43.6818 89.705 43.76 88.9Z" fill="#263238"/>
<path d="M41.7912 91.7014C41.7912 91.5082 41.8234 91.3104 41.8418 91.1172C41.8786 90.6894 41.9246 90.2616 41.9706 89.8338C42.0166 89.406 42.0534 88.9782 42.0902 88.5504C42.127 88.1226 42.2006 87.6994 42.196 87.2624C42.196 87.175 42.3248 87.1796 42.3294 87.2624C42.3616 87.6948 42.4444 88.118 42.4628 88.555C42.4788 89.0014 42.4696 89.4483 42.4352 89.8936C42.4044 90.308 42.346 90.7198 42.2604 91.1264C42.219 91.338 42.1638 91.545 42.104 91.7474C42.0442 91.9498 41.9246 92.1798 41.8648 92.396C41.8648 92.4512 41.7544 92.4374 41.7636 92.396C41.7958 92.166 41.7728 91.9268 41.7912 91.7014Z" fill="#263238"/>
<path d="M40.1444 86.8622C40.1444 86.784 40.2732 86.8116 40.2778 86.8852C40.3872 88.4335 40.2317 89.9892 39.8178 91.4852C39.8178 91.495 39.8139 91.5043 39.807 91.5112C39.8001 91.5181 39.7908 91.522 39.781 91.522C39.7712 91.522 39.7619 91.5181 39.755 91.5112C39.7481 91.5043 39.7442 91.495 39.7442 91.4852C39.6752 89.9333 39.8098 88.3791 40.1444 86.8622Z" fill="#263238"/>
<path d="M37.941 88.3158C37.9686 87.9524 37.9778 87.589 38.0238 87.2302C38.0449 86.8855 38.0988 86.5435 38.1848 86.209C38.1887 86.1943 38.1974 86.1813 38.2094 86.172C38.2215 86.1627 38.2363 86.1577 38.2515 86.1577C38.2667 86.1577 38.2815 86.1627 38.2936 86.172C38.3056 86.1813 38.3143 86.1943 38.3182 86.209C38.3819 86.547 38.4066 86.8912 38.3918 87.2348C38.3918 87.6074 38.3688 87.9892 38.3412 88.3618C38.2684 89.0797 38.1517 89.7926 37.9916 90.4962C37.9916 90.556 37.8904 90.5376 37.895 90.4962C37.9088 89.7648 37.8858 89.038 37.941 88.3158Z" fill="#263238"/>
<path d="M36.2252 85.174C36.2252 85.1004 36.354 85.1234 36.354 85.197C36.407 86.4828 36.2785 87.7697 35.9722 89.0196C35.9722 89.0294 35.9683 89.0387 35.9614 89.0456C35.9545 89.0525 35.9452 89.0564 35.9354 89.0564C35.9256 89.0564 35.9163 89.0525 35.9094 89.0456C35.9025 89.0387 35.8986 89.0294 35.8986 89.0196C35.8243 87.7287 35.9342 86.4339 36.2252 85.174Z" fill="#263238"/>
<path d="M34.0678 85.9882C34.0678 85.6708 34.3898 84.208 34.4404 83.9182C34.4404 83.8216 34.583 83.84 34.5738 83.9412C34.537 84.2908 34.4404 85.6616 34.399 85.9974C34.3116 86.6644 34.2472 87.336 34.146 87.9984C34.146 88.026 34.0954 88.0398 34.0954 87.9984C34.0338 87.3301 34.0246 86.658 34.0678 85.9882Z" fill="#263238"/>
<path d="M7.0888 155.563C16.4498 159.059 41.1288 144.178 55.5958 131.869C58.3558 129.527 35.7284 105.787 33.0558 108.583C30.25 111.575 27.2587 114.386 24.0996 117.001C23.2716 117.567 -3.16 151.727 7.0888 155.563Z" fill="#D3766A"/>
<path d="M73.0114 92.4788C74.1568 95.7494 65.8538 97.8838 65.8538 97.8838C67.3004 98.2575 68.5721 99.1227 69.451 100.331C70.8908 102.539 68.071 105.764 68.071 105.764C69.491 106.461 70.6676 107.57 71.4474 108.947C72.6158 111.196 70.2284 114.858 70.2284 114.858C71.1786 116.22 71.6079 117.879 71.4382 119.531C70.7988 123.924 64.368 126.224 60.6696 128.437C56.5583 131.006 52.663 133.906 49.0224 137.108L31.4734 110.226C31.4734 110.226 45.2412 93.9968 50.154 92.5662C54.2894 91.3564 71.2634 87.4786 73.0114 92.4788Z" fill="#D3766A"/>
<path d="M65.7572 97.8148C61.0468 98.0448 56.4008 99.4018 51.9572 100.759C51.9371 100.765 51.9202 100.779 51.9103 100.797C51.9003 100.816 51.8982 100.838 51.9043 100.858C51.9104 100.878 51.9242 100.895 51.9428 100.905C51.9613 100.915 51.9831 100.917 52.0032 100.911C56.433 99.5306 61.3412 99.2592 65.8032 98.0356C65.8277 98.0252 65.8478 98.0066 65.8601 97.983C65.8724 97.9595 65.8761 97.9324 65.8707 97.9063C65.8653 97.8803 65.851 97.857 65.8303 97.8403C65.8096 97.8236 65.7838 97.8146 65.7572 97.8148Z" fill="#263238"/>
<path d="M67.8318 105.46C66.7672 105.613 65.7278 105.907 64.7406 106.334C63.6673 106.72 62.5939 107.124 61.5206 107.544C59.4 108.386 57.2978 109.273 55.2278 110.226C55.1358 110.267 55.1772 110.419 55.2738 110.377C57.3898 109.545 59.515 108.74 61.6632 107.995C62.7396 107.624 63.8129 107.26 64.8832 106.904C65.9241 106.634 66.9316 106.248 67.887 105.754C67.9143 105.737 67.9359 105.712 67.9488 105.683C67.9618 105.653 67.9655 105.62 67.9596 105.588C67.9536 105.557 67.9382 105.527 67.9155 105.505C67.8927 105.482 67.8635 105.466 67.8318 105.46Z" fill="#263238"/>
<path d="M70.1318 114.89C69.2118 114.927 68.2366 115.474 67.3718 115.81C66.415 116.215 65.4536 116.61 64.4922 117.006C62.5694 117.788 60.6466 118.575 58.6916 119.306C58.595 119.343 58.6456 119.495 58.7422 119.458C60.7294 118.74 62.7212 118.05 64.7222 117.31C65.6943 116.951 66.6634 116.584 67.6294 116.21C68.4528 115.893 69.5154 115.594 70.1778 114.982C70.2146 114.954 70.1824 114.89 70.1318 114.89Z" fill="#263238"/>
<path d="M4.3196 154.565C13.929 164.616 48.0656 138.709 48.0656 138.709L33.916 107.466C33.916 107.466 25.6866 116.518 25.176 116.118C24.6654 115.718 -5.2852 144.514 4.3196 154.565Z" fill="#FCF4F3"/>
<path d="M42.5824 138.497C40.448 134.454 32.329 117.604 30.8202 113.846C30.7144 113.584 30.857 113.455 30.9996 113.712C37.6788 125.672 40.8482 134.334 42.7388 138.405C42.7848 138.506 42.633 138.58 42.5824 138.497Z" fill="#263238"/>
<path d="M33.6906 107.576C32.7063 108.361 31.7836 109.221 30.9306 110.147C30.1348 110.943 29.3436 111.734 28.5616 112.539C26.8596 114.287 25.2036 116.072 23.5568 117.871C21.91 119.669 20.2908 121.482 18.69 123.317C17.0892 125.153 15.6126 127.08 14.0164 128.92C13.9474 129.003 14.0808 129.104 14.1544 129.021C15.792 127.209 17.5538 125.502 19.2144 123.727L24.1548 118.506C25.8016 116.767 27.4576 115.042 29.0998 113.298C29.9048 112.447 30.7006 111.587 31.501 110.732C32.4016 109.85 33.2394 108.906 34.008 107.907C34.0336 107.862 34.044 107.811 34.0377 107.759C34.0314 107.708 34.0087 107.66 33.973 107.623C33.9373 107.586 33.8905 107.561 33.8396 107.553C33.7887 107.544 33.7364 107.552 33.6906 107.576Z" fill="#263238"/>
<path d="M47.9 137.977C47.808 137.766 47.6838 137.757 47.7206 138.005C47.7206 138.138 47.8034 138.373 47.8264 138.506C46.6304 139.298 42.3064 142.352 41.2714 143.106C39.0542 144.652 36.929 146.303 34.6014 147.674C7.15779 163.793 4.01599 153.53 3.35359 153.272C3.25239 153.231 3.29379 153.295 3.35359 153.392C3.81359 154.234 7.20379 164.892 34.8958 148.245C37.2418 146.832 39.574 145.374 41.7958 143.792C42.9136 143.001 44.0084 142.177 45.0894 141.34C46.173 140.594 47.1779 139.741 48.0886 138.792C48.1207 138.753 48.1416 138.707 48.1489 138.657C48.1562 138.608 48.1496 138.557 48.13 138.511C48.061 138.332 47.9828 138.152 47.9 137.977Z" fill="#263238"/>
<path d="M-12.636 158.268L12.273 158.158L37.182 158.116L87 158.038L136.818 158.116L161.727 158.158L186.636 158.268L161.727 158.383L136.818 158.42L87 158.498L37.182 158.42L12.273 158.383L-12.636 158.268Z" fill="#263238"/>
<path d="M87.069 164.289H144.436L151.934 125.332H94.567L87.069 164.289Z" fill="#455A64"/>
<path d="M116.008 144.808C115.959 145.253 116.006 145.703 116.145 146.129C116.284 146.554 116.512 146.945 116.813 147.275C117.114 147.606 117.483 147.869 117.894 148.046C118.304 148.224 118.748 148.312 119.195 148.304C120.147 148.287 121.058 147.921 121.758 147.277C122.459 146.633 122.898 145.755 122.995 144.808C123.043 144.364 122.997 143.914 122.858 143.489C122.719 143.064 122.491 142.673 122.189 142.343C121.888 142.013 121.52 141.75 121.109 141.573C120.698 141.397 120.254 141.309 119.807 141.317C118.857 141.334 117.946 141.699 117.246 142.342C116.546 142.986 116.105 143.863 116.008 144.808Z" fill="#263238"/>
<path d="M90.68 25.9168C90.3573 28.9987 89.1848 31.9304 87.2933 34.3849C85.4017 36.8393 82.8655 38.7201 79.9674 39.8173C77.0694 40.9144 73.9235 41.185 70.8807 40.5987C67.8379 40.0124 65.0178 38.5923 62.735 36.4968L54.3676 37.725L58.572 30.48C57.607 28.1245 57.1924 25.5798 57.3597 23.0398C57.527 20.4998 58.2719 18.0315 59.5376 15.8229C60.8033 13.6144 62.5564 11.7238 64.6634 10.2954C66.7703 8.86695 69.1755 7.93827 71.6957 7.5801C74.2159 7.22192 76.7846 7.44372 79.2061 8.22857C81.6276 9.01343 83.838 10.3407 85.6689 12.1091C87.4999 13.8776 88.903 16.0406 89.7714 18.4334C90.6398 20.8262 90.9505 23.3857 90.68 25.9168Z" fill="white"/>
<path d="M90.68 25.9168C90.3573 28.9991 89.1906 31.9326 87.3082 34.3946C86.8371 35.0067 86.3302 35.5904 85.7902 36.1426C85.2335 36.6763 84.6435 37.1741 84.0238 37.633C81.5427 39.5041 78.5929 40.6534 75.5 40.9542C74.7277 41.0247 73.9514 41.0401 73.177 41.0002C72.4051 40.9805 71.6359 40.8989 70.877 40.7564C67.7901 40.1934 64.9222 38.7786 62.597 36.6716L62.7948 36.736L54.4366 38.0194L53.8294 38.1114L54.1376 37.5778L58.3006 30.3282L58.2776 30.6134C57.2973 28.2152 56.8805 25.624 57.0591 23.0393C57.2377 20.4546 58.0071 17.9454 59.308 15.7048C60.6112 13.4747 62.4024 11.5686 64.5474 10.1296C66.6916 8.70816 69.1302 7.79127 71.6797 7.44788C74.2293 7.10448 76.8235 7.34351 79.2674 8.147C81.682 8.96947 83.8822 10.3211 85.7074 12.103C87.5273 13.8794 88.9203 16.0455 89.7817 18.4383C90.643 20.8311 90.9502 23.3881 90.68 25.9168ZM90.68 25.9168C90.9441 23.4 90.6278 20.8562 89.7556 18.4806C88.8833 16.1051 87.4782 13.9611 85.6482 12.2132C83.8181 10.4654 81.6118 9.16017 79.1988 8.39787C76.7857 7.63557 74.23 7.43645 71.728 7.8158C69.2513 8.19148 66.8921 9.12416 64.828 10.5436C62.7858 11.9804 61.0798 13.8434 59.8278 16.0038C58.5932 18.1709 57.8666 20.5899 57.7026 23.0786C57.5472 25.5648 57.9495 28.0543 58.8802 30.365L58.94 30.5168L58.8618 30.6548L54.6482 37.8722L54.3492 37.4122L62.7258 36.2392H62.8408L62.9236 36.3128C65.1548 38.4127 67.9288 39.8467 70.9322 40.4528C71.6793 40.6067 72.4378 40.699 73.2 40.7288C73.9657 40.7844 74.7343 40.7844 75.5 40.7288C77.0274 40.6126 78.5309 40.2828 79.9666 39.749C81.4106 39.2251 82.7698 38.492 84.0008 37.5732C84.6185 37.1167 85.2084 36.6236 85.7672 36.0966C86.3109 35.5545 86.8194 34.9784 87.2898 34.3716C89.1766 31.9191 90.3497 28.9934 90.68 25.9168Z" fill="#263238"/>
<path d="M75.8036 26.1238V28.088C75.808 28.2835 75.7727 28.4779 75.6998 28.6593C75.6268 28.8408 75.5178 29.0055 75.3793 29.1436C75.2408 29.2817 75.0757 29.3902 74.8941 29.4625C74.7124 29.5349 74.5179 29.5696 74.3224 29.5646C73.9312 29.5634 73.5563 29.4074 73.2796 29.1308C73.003 28.8541 72.847 28.4792 72.8458 28.088V24.96C72.8458 24.9278 72.878 24.9278 72.878 24.9002C72.878 24.8726 72.8458 24.868 72.8458 24.8358C72.8574 24.4478 73.0166 24.0789 73.2911 23.8045C73.5655 23.53 73.9344 23.3708 74.3224 23.3592C74.7766 23.376 75.2295 23.301 75.654 23.1387C76.0786 22.9765 76.4661 22.7303 76.7933 22.4149C77.1206 22.0995 77.3809 21.7214 77.5587 21.3031C77.7365 20.8848 77.8281 20.435 77.8281 19.9805C77.8281 19.526 77.7365 19.0762 77.5587 18.6579C77.3809 18.2396 77.1206 17.8615 76.7933 17.5461C76.4661 17.2307 76.0786 16.9845 75.654 16.8223C75.2295 16.66 74.7766 16.585 74.3224 16.6018C73.7367 16.5997 73.1608 16.7521 72.6528 17.0437C72.1448 17.3352 71.7227 17.7556 71.429 18.2624C71.3309 18.4338 71.1998 18.5839 71.0431 18.7042C70.8865 18.8244 70.7076 18.9123 70.5167 18.9628C70.3258 19.0133 70.1268 19.0254 69.9312 18.9984C69.7357 18.9713 69.5474 18.9056 69.3774 18.8052C69.2107 18.7066 69.0652 18.5761 68.9492 18.421C68.8333 18.266 68.7491 18.0895 68.7017 17.9018C68.6542 17.7141 68.6444 17.5188 68.6727 17.3273C68.701 17.1358 68.767 16.9517 68.8668 16.7858C69.3932 15.8769 70.1372 15.1131 71.0319 14.5629C71.9266 14.0128 72.9439 13.6936 73.9926 13.634C75.0412 13.5745 76.0882 13.7764 77.0394 14.2217C77.9907 14.667 78.8164 15.3416 79.4423 16.1851C80.0682 17.0285 80.4747 18.0142 80.6254 19.0537C80.776 20.0931 80.6659 21.1537 80.3051 22.1401C79.9443 23.1265 79.3441 24.0078 78.5584 24.7047C77.7726 25.4017 76.826 25.8925 75.8036 26.133V26.1238ZM75.8036 32.7294V33.2722C75.8087 33.4681 75.7738 33.663 75.7012 33.845C75.6285 34.027 75.5196 34.1923 75.381 34.3308C75.2425 34.4694 75.0772 34.5783 74.8952 34.651C74.7132 34.7236 74.5183 34.7585 74.3224 34.7534C73.9304 34.7522 73.5548 34.5956 73.278 34.3179C73.0012 34.0403 72.8458 33.6642 72.8458 33.2722V32.7294C72.8517 32.3396 73.0092 31.9675 73.2848 31.6919C73.5605 31.4162 73.9326 31.2587 74.3224 31.2528C74.5172 31.2503 74.7105 31.2868 74.8911 31.3601C75.0716 31.4334 75.2356 31.542 75.3736 31.6795C75.5116 31.8171 75.6207 31.9808 75.6945 32.1611C75.7684 32.3414 75.8055 32.5346 75.8036 32.7294Z" fill="#FF7C65"/>
</svg>
